<?xml version="1.0" encoding="UTF-8" standalone="no"?><!DOCTYPE svg PUBLIC "-//W3C//DTD SVG 1.1//EN" "http://www.w3.org/Graphics/SVG/1.1/DTD/svg11.dtd"><!-- Generated by graphviz version 2.40.1 (20161225.0304)
 --><!-- Title: G Pages: 1 --><svg xmlns="http://www.w3.org/2000/svg" xmlns:xlink="http://www.w3.org/1999/xlink" width="5691pt" height="1734pt" viewBox="0.00 0.00 5691.35 1733.90">
<g id="graph0" class="graph" transform="scale(1 1) rotate(0) translate(4 1729.9027)">
<title>G</title>
<polygon fill="#ffffff" stroke="transparent" points="-4,4 -4,-1729.9027 5687.3518,-1729.9027 5687.3518,4 -4,4"/>
<!-- END_OF_PROGRAM -->
<g id="node1" class="node">
<title>END_OF_PROGRAM</title>
<ellipse fill="none" stroke="#000000" cx="2280.1953" cy="-1621.2806" rx="100.7396" ry="100.7396"/>
<ellipse fill="none" stroke="#000000" cx="2280.1953" cy="-1621.2806" rx="104.7442" ry="104.7442"/>
<text text-anchor="middle" x="2280.1953" y="-1617.0806" font-family="Times,serif" font-size="14.00" fill="#000000">END_OF_PROGRAM</text>
</g>
<!-- q1 -->
<g id="node2" class="node">
<title>q1</title>
<ellipse fill="none" stroke="#000000" cx="20.6935" cy="-543.2806" rx="20.8887" ry="20.8887"/>
<text text-anchor="middle" x="20.6935" y="-539.0806" font-family="Times,serif" font-size="14.00" fill="#000000">q1</text>
</g>
<!-- q2 -->
<g id="node3" class="node">
<title>q2</title>
<ellipse fill="none" stroke="#000000" cx="145.5068" cy="-568.2806" rx="20.8887" ry="20.8887"/>
<text text-anchor="middle" x="145.5068" y="-564.0806" font-family="Times,serif" font-size="14.00" fill="#000000">q2</text>
</g>
<!-- q1&#45;&gt;q2 -->
<g id="edge1" class="edge">
<title>q1-&gt;q2</title>
<path fill="none" stroke="#000000" d="M41.0247,-547.3529C61.1519,-551.3844 92.2088,-557.6051 115.2369,-562.2176"/>
<polygon fill="#000000" stroke="#000000" points="114.6916,-565.6778 125.1843,-564.21 116.0664,-558.8141 114.6916,-565.6778"/>
<text text-anchor="middle" x="83.1001" y="-564.4806" font-family="Times,serif" font-size="14.00" fill="#000000">program</text>
</g>
<!-- q5 -->
<g id="node6" class="node">
<title>q5</title>
<ellipse fill="none" stroke="#000000" cx="464.1147" cy="-498.2806" rx="20.8887" ry="20.8887"/>
<text text-anchor="middle" x="464.1147" y="-494.0806" font-family="Times,serif" font-size="14.00" fill="#000000">q5</text>
</g>
<!-- q1&#45;&gt;q5 -->
<g id="edge7" class="edge">
<title>q1-&gt;q5</title>
<path fill="none" stroke="#000000" d="M39.7614,-535.2057C63.9141,-525.7259 107.0307,-511.2806 145.5068,-511.2806 145.5068,-511.2806 145.5068,-511.2806 357.178,-511.2806 383.0964,-511.2806 412.2919,-507.4708 433.6207,-503.9761"/>
<polygon fill="#000000" stroke="#000000" points="434.4369,-507.3874 443.7038,-502.2517 433.2568,-500.4876 434.4369,-507.3874"/>
<text text-anchor="middle" x="275.9005" y="-515.4806" font-family="Times,serif" font-size="14.00" fill="#000000">const</text>
</g>
<!-- q6 -->
<g id="node7" class="node">
<title>q6</title>
<ellipse fill="none" stroke="#000000" cx="1279.3304" cy="-521.2806" rx="20.8887" ry="20.8887"/>
<text text-anchor="middle" x="1279.3304" y="-517.0806" font-family="Times,serif" font-size="14.00" fill="#000000">q6</text>
</g>
<!-- q1&#45;&gt;q6 -->
<g id="edge8" class="edge">
<title>q1-&gt;q6</title>
<path fill="none" stroke="#000000" d="M24.1548,-522.5856C33.6955,-473.3418 65.1918,-353.2806 145.5068,-353.2806 145.5068,-353.2806 145.5068,-353.2806 1179.2399,-353.2806 1242.4995,-353.2806 1266.6965,-442.2798 1275.1817,-490.7231"/>
<polygon fill="#000000" stroke="#000000" points="1271.7415,-491.374 1276.8049,-500.6805 1278.6503,-490.2476 1271.7415,-491.374"/>
<text text-anchor="middle" x="642.1394" y="-357.4806" font-family="Times,serif" font-size="14.00" fill="#000000">var</text>
</g>
<!-- q17 -->
<g id="node18" class="node">
<title>q17</title>
<ellipse fill="none" stroke="#000000" cx="1989.521" cy="-657.2806" rx="25.5439" ry="25.5439"/>
<text text-anchor="middle" x="1989.521" y="-653.0806" font-family="Times,serif" font-size="14.00" fill="#000000">q17</text>
</g>
<!-- q1&#45;&gt;q17 -->
<g id="edge34" class="edge">
<title>q1-&gt;q17</title>
<path fill="none" stroke="#000000" d="M23.7986,-563.8856C32.6674,-614.2078 63.0085,-739.2806 145.5068,-739.2806 145.5068,-739.2806 145.5068,-739.2806 1871.372,-739.2806 1910.1799,-739.2806 1945.4166,-709.0531 1967.1129,-685.3032"/>
<polygon fill="#000000" stroke="#000000" points="1969.9572,-687.3691 1973.9373,-677.5503 1964.7028,-682.744 1969.9572,-687.3691"/>
<text text-anchor="middle" x="921.0402" y="-743.4806" font-family="Times,serif" font-size="14.00" fill="#000000">begin</text>
</g>
<!-- q3 -->
<g id="node4" class="node">
<title>q3</title>
<ellipse fill="none" stroke="#000000" cx="275.9005" cy="-591.2806" rx="20.8887" ry="20.8887"/>
<text text-anchor="middle" x="275.9005" y="-587.0806" font-family="Times,serif" font-size="14.00" fill="#000000">q3</text>
</g>
<!-- q2&#45;&gt;q3 -->
<g id="edge2" class="edge">
<title>q2-&gt;q3</title>
<path fill="none" stroke="#000000" d="M166.168,-571.925C187.4366,-575.6766 220.8174,-581.5646 245.1807,-585.862"/>
<polygon fill="#000000" stroke="#000000" points="244.8799,-589.3629 255.3359,-587.6532 246.0959,-582.4693 244.8799,-589.3629"/>
<text text-anchor="middle" x="210.7036" y="-588.4806" font-family="Times,serif" font-size="14.00" fill="#000000">a-z|A-Z|_</text>
</g>
<!-- q3&#45;&gt;q3 -->
<g id="edge3" class="edge">
<title>q3-&gt;q3</title>
<path fill="none" stroke="#000000" d="M268.6641,-610.7915C267.5509,-620.8801 269.963,-629.9741 275.9005,-629.9741 279.7042,-629.9741 282.0611,-626.2419 282.9711,-620.907"/>
<polygon fill="#000000" stroke="#000000" points="286.4725,-620.8475 283.1368,-610.7915 279.4734,-620.7328 286.4725,-620.8475"/>
<text text-anchor="middle" x="275.9005" y="-634.1741" font-family="Times,serif" font-size="14.00" fill="#000000">a-z|A-Z|0-9|_</text>
</g>
<!-- q4 -->
<g id="node5" class="node">
<title>q4</title>
<ellipse fill="none" stroke="#000000" cx="357.178" cy="-620.2806" rx="20.8887" ry="20.8887"/>
<text text-anchor="middle" x="357.178" y="-616.0806" font-family="Times,serif" font-size="14.00" fill="#000000">q4</text>
</g>
<!-- q3&#45;&gt;q4 -->
<g id="edge4" class="edge">
<title>q3-&gt;q4</title>
<path fill="none" stroke="#000000" d="M295.5755,-598.3007C305.3593,-601.7916 317.3755,-606.079 328.1894,-609.9374"/>
<polygon fill="#000000" stroke="#000000" points="327.0895,-613.261 337.6841,-613.3252 329.4419,-606.6681 327.0895,-613.261"/>
<text text-anchor="middle" x="316.5392" y="-610.4806" font-family="Times,serif" font-size="14.00" fill="#000000">;</text>
</g>
<!-- q4&#45;&gt;q5 -->
<g id="edge5" class="edge">
<title>q4-&gt;q5</title>
<path fill="none" stroke="#000000" d="M371.1581,-604.3312C389.6727,-583.2086 422.4599,-545.8029 443.7334,-521.5328"/>
<polygon fill="#000000" stroke="#000000" points="446.5097,-523.6753 450.4692,-513.8482 441.2456,-519.0612 446.5097,-523.6753"/>
<text text-anchor="middle" x="410.6463" y="-578.4806" font-family="Times,serif" font-size="14.00" fill="#000000">const</text>
</g>
<!-- q4&#45;&gt;q6 -->
<g id="edge6" class="edge">
<title>q4-&gt;q6</title>
<path fill="none" stroke="#000000" d="M376.4896,-628.5301C397.6061,-636.7894 432.641,-648.2806 464.1147,-648.2806 464.1147,-648.2806 464.1147,-648.2806 737.7942,-648.2806 850.4022,-648.2806 878.4575,-655.2806 991.0655,-655.2806 991.0655,-655.2806 991.0655,-655.2806 1179.2399,-655.2806 1230.7941,-655.2806 1258.9816,-590.8279 1271.4166,-551.3228"/>
<polygon fill="#000000" stroke="#000000" points="1274.8026,-552.2157 1274.3109,-541.6323 1268.0954,-550.2124 1274.8026,-552.2157"/>
<text text-anchor="middle" x="785.818" y="-653.4806" font-family="Times,serif" font-size="14.00" fill="#000000">var</text>
</g>
<!-- q4&#45;&gt;q17 -->
<g id="edge35" class="edge">
<title>q4-&gt;q17</title>
<path fill="none" stroke="#000000" d="M370.0767,-636.8454C388.4381,-658.3835 424.3273,-693.2806 464.1147,-693.2806 464.1147,-693.2806 464.1147,-693.2806 1871.372,-693.2806 1901.3922,-693.2806 1933.9129,-682.514 1957.221,-672.7568"/>
<polygon fill="#000000" stroke="#000000" points="1958.8384,-675.87 1966.612,-668.6712 1956.0459,-669.4512 1958.8384,-675.87"/>
<text text-anchor="middle" x="1120.1653" y="-697.4806" font-family="Times,serif" font-size="14.00" fill="#000000">begin</text>
</g>
<!-- q7 -->
<g id="node8" class="node">
<title>q7</title>
<ellipse fill="none" stroke="#000000" cx="594.5084" cy="-498.2806" rx="20.8887" ry="20.8887"/>
<text text-anchor="middle" x="594.5084" y="-494.0806" font-family="Times,serif" font-size="14.00" fill="#000000">q7</text>
</g>
<!-- q5&#45;&gt;q7 -->
<g id="edge9" class="edge">
<title>q5-&gt;q7</title>
<path fill="none" stroke="#000000" d="M485.0647,-498.2806C506.2609,-498.2806 539.2711,-498.2806 563.4985,-498.2806"/>
<polygon fill="#000000" stroke="#000000" points="563.6104,-501.7807 573.6104,-498.2806 563.6103,-494.7807 563.6104,-501.7807"/>
<text text-anchor="middle" x="529.3115" y="-502.4806" font-family="Times,serif" font-size="14.00" fill="#000000">a-z|A-Z|_</text>
</g>
<!-- q13 -->
<g id="node14" class="node">
<title>q13</title>
<ellipse fill="none" stroke="#000000" cx="1414.5526" cy="-481.2806" rx="25.5439" ry="25.5439"/>
<text text-anchor="middle" x="1414.5526" y="-477.0806" font-family="Times,serif" font-size="14.00" fill="#000000">q13</text>
</g>
<!-- q6&#45;&gt;q13 -->
<g id="edge26" class="edge">
<title>q6-&gt;q13</title>
<path fill="none" stroke="#000000" d="M1299.9814,-517.2927C1318.7362,-513.4439 1347.0492,-507.0635 1371.0307,-499.2806 1374.3992,-498.1874 1377.8738,-496.9489 1381.322,-495.6454"/>
<polygon fill="#000000" stroke="#000000" points="1382.8521,-498.804 1390.8603,-491.8672 1380.2742,-492.296 1382.8521,-498.804"/>
<text text-anchor="middle" x="1344.5273" y="-517.4806" font-family="Times,serif" font-size="14.00" fill="#000000">a-z|A-Z|_</text>
</g>
<!-- q7&#45;&gt;q7 -->
<g id="edge10" class="edge">
<title>q7-&gt;q7</title>
<path fill="none" stroke="#000000" d="M586.2392,-517.3927C584.834,-527.6392 587.5904,-536.9741 594.5084,-536.9741 598.9402,-536.9741 601.6641,-533.143 602.6801,-527.6956"/>
<polygon fill="#000000" stroke="#000000" points="606.1827,-527.4254 602.7775,-517.3927 599.183,-527.3592 606.1827,-527.4254"/>
<text text-anchor="middle" x="594.5084" y="-541.1741" font-family="Times,serif" font-size="14.00" fill="#000000">a-z|A-Z|0-9|_</text>
</g>
<!-- q8 -->
<g id="node9" class="node">
<title>q8</title>
<ellipse fill="none" stroke="#000000" cx="689.7705" cy="-498.2806" rx="20.8887" ry="20.8887"/>
<text text-anchor="middle" x="689.7705" y="-494.0806" font-family="Times,serif" font-size="14.00" fill="#000000">q8</text>
</g>
<!-- q7&#45;&gt;q8 -->
<g id="edge11" class="edge">
<title>q7-&gt;q8</title>
<path fill="none" stroke="#000000" d="M615.6501,-498.2806C628.3174,-498.2806 644.6497,-498.2806 658.758,-498.2806"/>
<polygon fill="#000000" stroke="#000000" points="659.0156,-501.7807 669.0156,-498.2806 659.0156,-494.7807 659.0156,-501.7807"/>
<text text-anchor="middle" x="642.1394" y="-502.4806" font-family="Times,serif" font-size="14.00" fill="#000000">=</text>
</g>
<!-- q8&#45;&gt;q8 -->
<g id="edge24" class="edge">
<title>q8-&gt;q8</title>
<path fill="none" stroke="#000000" d="M681.5014,-517.3927C680.0961,-527.6392 682.8525,-536.9741 689.7705,-536.9741 694.2023,-536.9741 696.9262,-533.143 697.9422,-527.6956"/>
<polygon fill="#000000" stroke="#000000" points="701.4448,-527.4254 698.0396,-517.3927 694.4451,-527.3592 701.4448,-527.4254"/>
<text text-anchor="middle" x="689.7705" y="-541.1741" font-family="Times,serif" font-size="14.00" fill="#000000">-|+</text>
</g>
<!-- q9 -->
<g id="node10" class="node">
<title>q9</title>
<ellipse fill="none" stroke="#000000" cx="785.818" cy="-539.2806" rx="20.8887" ry="20.8887"/>
<text text-anchor="middle" x="785.818" y="-535.0806" font-family="Times,serif" font-size="14.00" fill="#000000">q9</text>
</g>
<!-- q8&#45;&gt;q9 -->
<g id="edge12" class="edge">
<title>q8-&gt;q9</title>
<path fill="none" stroke="#000000" d="M709.2071,-506.5776C722.9666,-512.4511 741.6487,-520.426 757.1193,-527.03"/>
<polygon fill="#000000" stroke="#000000" points="756.1668,-530.4289 766.738,-531.1359 758.915,-523.9909 756.1668,-530.4289"/>
<text text-anchor="middle" x="737.7942" y="-527.4806" font-family="Times,serif" font-size="14.00" fill="#000000">0-9</text>
</g>
<!-- q10 -->
<g id="node11" class="node">
<title>q10</title>
<ellipse fill="none" stroke="#000000" cx="1061.0908" cy="-567.2806" rx="25.5439" ry="25.5439"/>
<text text-anchor="middle" x="1061.0908" y="-563.0806" font-family="Times,serif" font-size="14.00" fill="#000000">q10</text>
</g>
<!-- q8&#45;&gt;q10 -->
<g id="edge13" class="edge">
<title>q8-&gt;q10</title>
<path fill="none" stroke="#000000" d="M710.3271,-494.4553C764.1053,-485.4907 912.0791,-467.5893 1017.5689,-519.2806 1026.3223,-523.5699 1034.1365,-530.4553 1040.6443,-537.6878"/>
<polygon fill="#000000" stroke="#000000" points="1038.0989,-540.1013 1047.1759,-545.5656 1043.4876,-535.6334 1038.0989,-540.1013"/>
<text text-anchor="middle" x="851.0148" y="-490.4806" font-family="Times,serif" font-size="14.00" fill="#000000">a-z|A-Z|_</text>
</g>
<!-- q9&#45;&gt;q9 -->
<g id="edge23" class="edge">
<title>q9-&gt;q9</title>
<path fill="none" stroke="#000000" d="M777.1893,-558.3927C775.723,-568.6392 778.5992,-577.9741 785.818,-577.9741 790.4425,-577.9741 793.2848,-574.143 794.345,-568.6956"/>
<polygon fill="#000000" stroke="#000000" points="797.8477,-568.4268 794.4467,-558.3927 790.8481,-568.3577 797.8477,-568.4268"/>
<text text-anchor="middle" x="785.818" y="-582.1741" font-family="Times,serif" font-size="14.00" fill="#000000">0-9</text>
</g>
<!-- q11 -->
<g id="node12" class="node">
<title>q11</title>
<ellipse fill="none" stroke="#000000" cx="921.0402" cy="-567.2806" rx="25.5439" ry="25.5439"/>
<text text-anchor="middle" x="921.0402" y="-563.0806" font-family="Times,serif" font-size="14.00" fill="#000000">q11</text>
</g>
<!-- q9&#45;&gt;q11 -->
<g id="edge14" class="edge">
<title>q9-&gt;q11</title>
<path fill="none" stroke="#000000" d="M802.1443,-552.6356C808.6963,-557.2135 816.5711,-561.8039 824.5114,-564.2806 844.0031,-570.3603 866.7936,-571.3347 885.3337,-570.6852"/>
<polygon fill="#000000" stroke="#000000" points="885.6196,-574.1752 895.4244,-570.1606 885.2561,-567.1846 885.6196,-574.1752"/>
<text text-anchor="middle" x="851.0148" y="-575.4806" font-family="Times,serif" font-size="14.00" fill="#000000">+|-|*|div</text>
</g>
<!-- q12 -->
<g id="node13" class="node">
<title>q12</title>
<ellipse fill="none" stroke="#000000" cx="1179.2399" cy="-521.2806" rx="25.5439" ry="25.5439"/>
<text text-anchor="middle" x="1179.2399" y="-517.0806" font-family="Times,serif" font-size="14.00" fill="#000000">q12</text>
</g>
<!-- q9&#45;&gt;q12 -->
<g id="edge21" class="edge">
<title>q9-&gt;q12</title>
<path fill="none" stroke="#000000" d="M806.2434,-535.6443C812.1222,-534.7252 818.5556,-533.8411 824.5114,-533.2806 940.739,-522.3431 1079.2141,-521.0221 1143.353,-521.0744"/>
<polygon fill="#000000" stroke="#000000" points="1143.35,-524.5743 1153.3571,-521.0945 1143.3641,-517.5743 1143.35,-524.5743"/>
<text text-anchor="middle" x="991.0655" y="-529.4806" font-family="Times,serif" font-size="14.00" fill="#000000">;</text>
</g>
<!-- q10&#45;&gt;q10 -->
<g id="edge16" class="edge">
<title>q10-&gt;q10</title>
<path fill="none" stroke="#000000" d="M1050.4309,-590.5642C1049.268,-601.3653 1052.8213,-610.8025 1061.0908,-610.8025 1066.5177,-610.8025 1069.9135,-606.7383 1071.2781,-600.8914"/>
<polygon fill="#000000" stroke="#000000" points="1074.7898,-600.7138 1071.7508,-590.5642 1067.7972,-600.3937 1074.7898,-600.7138"/>
<text text-anchor="middle" x="1061.0908" y="-615.0025" font-family="Times,serif" font-size="14.00" fill="#000000">a-z|A-Z|0-9|_</text>
</g>
<!-- q10&#45;&gt;q11 -->
<g id="edge15" class="edge">
<title>q10-&gt;q11</title>
<path fill="none" stroke="#000000" d="M1035.8324,-563.3386C1029.8593,-562.5664 1023.5016,-561.8742 1017.5689,-561.4806 994.062,-559.9212 988.069,-559.9212 964.5621,-561.4806 961.8739,-561.6589 959.0983,-561.8986 956.3109,-562.1792"/>
<polygon fill="#000000" stroke="#000000" points="955.8295,-558.7115 946.2986,-563.3386 956.6348,-565.665 955.8295,-558.7115"/>
<text text-anchor="middle" x="991.0655" y="-566.4806" font-family="Times,serif" font-size="14.00" fill="#000000">+|-|*|div</text>
</g>
<!-- q10&#45;&gt;q12 -->
<g id="edge22" class="edge">
<title>q10-&gt;q12</title>
<path fill="none" stroke="#000000" d="M1085,-557.9718C1102.5357,-551.1445 1126.5711,-541.7866 1145.9791,-534.2303"/>
<polygon fill="#000000" stroke="#000000" points="1147.3174,-537.4652 1155.3662,-530.5756 1144.7777,-530.9422 1147.3174,-537.4652"/>
<text text-anchor="middle" x="1120.1653" y="-554.4806" font-family="Times,serif" font-size="14.00" fill="#000000">;</text>
</g>
<!-- q11&#45;&gt;q9 -->
<g id="edge17" class="edge">
<title>q11-&gt;q9</title>
<path fill="none" stroke="#000000" d="M899.7341,-553.1237C892.9142,-549.2923 885.1476,-545.6175 877.5182,-543.4806 857.8546,-537.973 834.9024,-536.9265 816.8796,-537.2552"/>
<polygon fill="#000000" stroke="#000000" points="816.5125,-533.7654 806.6348,-537.597 816.746,-540.7615 816.5125,-533.7654"/>
<text text-anchor="middle" x="851.0148" y="-548.4806" font-family="Times,serif" font-size="14.00" fill="#000000">0-9</text>
</g>
<!-- q11&#45;&gt;q10 -->
<g id="edge18" class="edge">
<title>q11-&gt;q10</title>
<path fill="none" stroke="#000000" d="M945.6948,-574.6378C951.8047,-576.1479 958.375,-577.5108 964.5621,-578.2806 987.9404,-581.1893 994.1906,-581.1893 1017.5689,-578.2806 1020.4691,-577.9198 1023.4535,-577.4286 1026.4352,-576.8531"/>
<polygon fill="#000000" stroke="#000000" points="1027.4298,-580.2177 1036.4362,-574.6378 1025.9159,-573.3833 1027.4298,-580.2177"/>
<text text-anchor="middle" x="991.0655" y="-585.4806" font-family="Times,serif" font-size="14.00" fill="#000000">a-z|A-Z|_</text>
</g>
<!-- q11&#45;&gt;q11 -->
<g id="edge25" class="edge">
<title>q11-&gt;q11</title>
<path fill="none" stroke="#000000" d="M908.3029,-589.6735C906.5405,-600.8412 910.7863,-610.8025 921.0402,-610.8025 927.9295,-610.8025 932.1067,-606.3058 933.5717,-599.9677"/>
<polygon fill="#000000" stroke="#000000" points="937.0768,-599.7415 933.7774,-589.6735 930.0782,-599.6015 937.0768,-599.7415"/>
<text text-anchor="middle" x="921.0402" y="-615.0025" font-family="Times,serif" font-size="14.00" fill="#000000">+|-</text>
</g>
<!-- q12&#45;&gt;q5 -->
<g id="edge19" class="edge">
<title>q12-&gt;q5</title>
<path fill="none" stroke="#000000" d="M1163.765,-500.5166C1143.2803,-475.6418 1104.631,-437.2806 1061.0908,-437.2806 594.5084,-437.2806 594.5084,-437.2806 594.5084,-437.2806 554.4902,-437.2806 513.5204,-461.1448 488.4452,-479.0204"/>
<polygon fill="#000000" stroke="#000000" points="486.2424,-476.2959 480.2663,-485.0445 490.3937,-481.9322 486.2424,-476.2959"/>
<text text-anchor="middle" x="785.818" y="-441.4806" font-family="Times,serif" font-size="14.00" fill="#000000">const</text>
</g>
<!-- q12&#45;&gt;q6 -->
<g id="edge20" class="edge">
<title>q12-&gt;q6</title>
<path fill="none" stroke="#000000" d="M1205.0157,-521.2806C1218.2165,-521.2806 1234.3899,-521.2806 1248.2739,-521.2806"/>
<polygon fill="#000000" stroke="#000000" points="1248.3577,-524.7807 1258.3577,-521.2806 1248.3577,-517.7807 1248.3577,-524.7807"/>
<text text-anchor="middle" x="1231.6994" y="-525.4806" font-family="Times,serif" font-size="14.00" fill="#000000">var</text>
</g>
<!-- q12&#45;&gt;q17 -->
<g id="edge36" class="edge">
<title>q12-&gt;q17</title>
<path fill="none" stroke="#000000" d="M1189.7253,-544.7059C1204.8669,-574.5423 1235.8823,-622.2806 1279.3304,-622.2806 1279.3304,-622.2806 1279.3304,-622.2806 1871.372,-622.2806 1901.1351,-622.2806 1933.4431,-632.6177 1956.7394,-642.0564"/>
<polygon fill="#000000" stroke="#000000" points="1955.5636,-645.3588 1966.1382,-646.0137 1958.28,-638.9074 1955.5636,-645.3588"/>
<text text-anchor="middle" x="1505.4871" y="-626.4806" font-family="Times,serif" font-size="14.00" fill="#000000">begin</text>
</g>
<!-- q13&#45;&gt;q6 -->
<g id="edge28" class="edge">
<title>q13-&gt;q6</title>
<path fill="none" stroke="#000000" d="M1389.6167,-474.8296C1369.421,-470.9203 1340.7018,-468.4111 1318.0239,-478.4806 1309.7329,-482.162 1302.4656,-488.595 1296.5353,-495.3721"/>
<polygon fill="#000000" stroke="#000000" points="1293.6845,-493.3338 1290.2066,-503.3416 1299.1663,-497.687 1293.6845,-493.3338"/>
<text text-anchor="middle" x="1344.5273" y="-483.4806" font-family="Times,serif" font-size="14.00" fill="#000000">,</text>
</g>
<!-- q13&#45;&gt;q13 -->
<g id="edge27" class="edge">
<title>q13-&gt;q13</title>
<path fill="none" stroke="#000000" d="M1406.3751,-505.8884C1405.8112,-516.1251 1408.537,-524.8025 1414.5526,-524.8025 1418.4064,-524.8025 1420.91,-521.2413 1422.0635,-515.9903"/>
<polygon fill="#000000" stroke="#000000" points="1425.564,-516.0972 1422.7301,-505.8884 1418.5792,-515.6362 1425.564,-516.0972"/>
<text text-anchor="middle" x="1414.5526" y="-529.0025" font-family="Times,serif" font-size="14.00" fill="#000000">a-z|A-Z|0-9|_</text>
</g>
<!-- q14 -->
<g id="node15" class="node">
<title>q14</title>
<ellipse fill="none" stroke="#000000" cx="1505.4871" cy="-499.2806" rx="25.5439" ry="25.5439"/>
<text text-anchor="middle" x="1505.4871" y="-495.0806" font-family="Times,serif" font-size="14.00" fill="#000000">q14</text>
</g>
<!-- q13&#45;&gt;q14 -->
<g id="edge29" class="edge">
<title>q13-&gt;q14</title>
<path fill="none" stroke="#000000" d="M1439.8829,-486.2946C1449.3423,-488.1671 1460.259,-490.328 1470.4392,-492.3431"/>
<polygon fill="#000000" stroke="#000000" points="1469.8033,-495.785 1480.2926,-494.2935 1471.1626,-488.9183 1469.8033,-495.785"/>
<text text-anchor="middle" x="1460.0198" y="-494.4806" font-family="Times,serif" font-size="14.00" fill="#000000">:</text>
</g>
<!-- q15 -->
<g id="node16" class="node">
<title>q15</title>
<ellipse fill="none" stroke="#000000" cx="1780.4375" cy="-512.2806" rx="25.5439" ry="25.5439"/>
<text text-anchor="middle" x="1780.4375" y="-508.0806" font-family="Times,serif" font-size="14.00" fill="#000000">q15</text>
</g>
<!-- q14&#45;&gt;q15 -->
<g id="edge30" class="edge">
<title>q14-&gt;q15</title>
<path fill="none" stroke="#000000" d="M1531.3537,-500.5036C1580.7098,-502.8372 1688.4054,-507.9292 1744.6381,-510.588"/>
<polygon fill="#000000" stroke="#000000" points="1744.6857,-514.094 1754.8399,-511.0703 1745.0164,-507.1019 1744.6857,-514.094"/>
<text text-anchor="middle" x="1642.9623" y="-514.4806" font-family="Times,serif" font-size="14.00" fill="#000000">integer|boolean|^integer|^boolean</text>
</g>
<!-- q16 -->
<g id="node17" class="node">
<title>q16</title>
<ellipse fill="none" stroke="#000000" cx="1871.372" cy="-536.2806" rx="25.5439" ry="25.5439"/>
<text text-anchor="middle" x="1871.372" y="-532.0806" font-family="Times,serif" font-size="14.00" fill="#000000">q16</text>
</g>
<!-- q15&#45;&gt;q16 -->
<g id="edge31" class="edge">
<title>q15-&gt;q16</title>
<path fill="none" stroke="#000000" d="M1805.2858,-518.8387C1815.0092,-521.405 1826.3289,-524.3926 1836.8236,-527.1624"/>
<polygon fill="#000000" stroke="#000000" points="1835.9917,-530.5626 1846.5538,-529.7304 1837.778,-523.7944 1835.9917,-530.5626"/>
<text text-anchor="middle" x="1825.9047" y="-528.4806" font-family="Times,serif" font-size="14.00" fill="#000000">;</text>
</g>
<!-- q16&#45;&gt;q5 -->
<g id="edge32" class="edge">
<title>q16-&gt;q5</title>
<path fill="none" stroke="#000000" d="M1867.3569,-511.0235C1859.1564,-469.4801 1836.3007,-391.2806 1780.4375,-391.2806 594.5084,-391.2806 594.5084,-391.2806 594.5084,-391.2806 548.088,-391.2806 537.1879,-410.0896 502.8081,-441.2806 493.4904,-449.7341 485.2972,-460.864 478.8775,-471.0436"/>
<polygon fill="#000000" stroke="#000000" points="475.855,-469.2785 473.7088,-479.6537 481.8566,-472.8814 475.855,-469.2785"/>
<text text-anchor="middle" x="1120.1653" y="-395.4806" font-family="Times,serif" font-size="14.00" fill="#000000">const</text>
</g>
<!-- q16&#45;&gt;q6 -->
<g id="edge33" class="edge">
<title>q16-&gt;q6</title>
<path fill="none" stroke="#000000" d="M1849.0139,-549.3231C1831.0866,-558.5472 1804.9577,-569.2806 1780.4375,-569.2806 1414.5526,-569.2806 1414.5526,-569.2806 1414.5526,-569.2806 1375.2824,-569.2806 1333.1012,-551.0795 1306.485,-537.0932"/>
<polygon fill="#000000" stroke="#000000" points="1307.8762,-533.866 1297.4175,-532.1726 1304.5374,-540.0185 1307.8762,-533.866"/>
<text text-anchor="middle" x="1505.4871" y="-573.4806" font-family="Times,serif" font-size="14.00" fill="#000000">var</text>
</g>
<!-- q16&#45;&gt;q17 -->
<g id="edge37" class="edge">
<title>q16-&gt;q17</title>
<path fill="none" stroke="#000000" d="M1893.2178,-549.4949C1909.0098,-559.7122 1930.2482,-574.8803 1945.9991,-591.4806 1955.6694,-601.6724 1964.5778,-614.2612 1971.7822,-625.6898"/>
<polygon fill="#000000" stroke="#000000" points="1968.9829,-627.8219 1977.1766,-634.5385 1974.9598,-624.1782 1968.9829,-627.8219"/>
<text text-anchor="middle" x="1930.4465" y="-596.4806" font-family="Times,serif" font-size="14.00" fill="#000000">begin</text>
</g>
<!-- q17&#45;&gt;END_OF_PROGRAM -->
<g id="edge124" class="edge">
<title>q17-&gt;END_OF_PROGRAM</title>
<path fill="none" stroke="#000000" d="M1990.1723,-683.1648C1993.6972,-819.7192 2011.1431,-1451.4779 2033.0429,-1486.2806 2063.9914,-1535.4631 2119.4755,-1568.0765 2170.0422,-1588.9046"/>
<polygon fill="#000000" stroke="#000000" points="2168.8353,-1592.1915 2179.4199,-1592.6579 2171.4364,-1585.6927 2168.8353,-1592.1915"/>
<text text-anchor="middle" x="2059.5463" y="-1544.4806" font-family="Times,serif" font-size="14.00" fill="#000000">end.</text>
</g>
<!-- q17&#45;&gt;q17 -->
<g id="edge38" class="edge">
<title>q17-&gt;q17</title>
<path fill="none" stroke="#000000" d="M1978.8611,-680.5642C1977.6982,-691.3653 1981.2515,-700.8025 1989.521,-700.8025 1994.9479,-700.8025 1998.3437,-696.7383 1999.7083,-690.8914"/>
<polygon fill="#000000" stroke="#000000" points="2003.2201,-690.7138 2000.181,-680.5642 1996.2274,-690.3937 2003.2201,-690.7138"/>
<text text-anchor="middle" x="1989.521" y="-705.0025" font-family="Times,serif" font-size="14.00" fill="#000000">;</text>
</g>
<!-- q18 -->
<g id="node19" class="node">
<title>q18</title>
<ellipse fill="none" stroke="#000000" cx="2280.1953" cy="-1473.2806" rx="25.5439" ry="25.5439"/>
<text text-anchor="middle" x="2280.1953" y="-1469.0806" font-family="Times,serif" font-size="14.00" fill="#000000">q18</text>
</g>
<!-- q17&#45;&gt;q18 -->
<g id="edge39" class="edge">
<title>q17-&gt;q18</title>
<path fill="none" stroke="#000000" d="M1990.0676,-682.8973C1992.9739,-813.8826 2007.4511,-1403.7556 2033.0429,-1432.2806 2086.3895,-1491.7413 2190.403,-1486.987 2244.9249,-1479.5525"/>
<polygon fill="#000000" stroke="#000000" points="2245.4381,-1483.0148 2254.8231,-1478.0982 2244.4205,-1476.0892 2245.4381,-1483.0148"/>
<text text-anchor="middle" x="2059.5463" y="-1469.4806" font-family="Times,serif" font-size="14.00" fill="#000000">read</text>
</g>
<!-- q22 -->
<g id="node20" class="node">
<title>q22</title>
<ellipse fill="none" stroke="#000000" cx="2280.1953" cy="-1312.2806" rx="25.5439" ry="25.5439"/>
<text text-anchor="middle" x="2280.1953" y="-1308.0806" font-family="Times,serif" font-size="14.00" fill="#000000">q22</text>
</g>
<!-- q17&#45;&gt;q22 -->
<g id="edge40" class="edge">
<title>q17-&gt;q22</title>
<path fill="none" stroke="#000000" d="M1989.6339,-683.0157C1990.3445,-791.7963 1995.5153,-1210.3124 2033.0429,-1254.2806 2085.4851,-1315.7229 2189.5199,-1318.9162 2244.3922,-1315.7726"/>
<polygon fill="#000000" stroke="#000000" points="2244.941,-1319.2435 2254.6813,-1315.0748 2244.4673,-1312.2596 2244.941,-1319.2435"/>
<text text-anchor="middle" x="2059.5463" y="-1294.4806" font-family="Times,serif" font-size="14.00" fill="#000000">write</text>
</g>
<!-- q27 -->
<g id="node21" class="node">
<title>q27</title>
<ellipse fill="none" stroke="#000000" cx="2280.1953" cy="-846.2806" rx="25.5439" ry="25.5439"/>
<text text-anchor="middle" x="2280.1953" y="-842.0806" font-family="Times,serif" font-size="14.00" fill="#000000">q27</text>
</g>
<!-- q17&#45;&gt;q27 -->
<g id="edge41" class="edge">
<title>q17-&gt;q27</title>
<path fill="none" stroke="#000000" d="M2002.1132,-679.4969C2009.8642,-691.7511 2020.672,-706.6011 2033.0429,-717.2806 2099.5065,-774.6567 2195.8805,-815.4934 2246.4008,-834.42"/>
<polygon fill="#000000" stroke="#000000" points="2245.2777,-837.7362 2255.8711,-837.9116 2247.6992,-831.1684 2245.2777,-837.7362"/>
<text text-anchor="middle" x="2059.5463" y="-757.4806" font-family="Times,serif" font-size="14.00" fill="#000000">if</text>
</g>
<!-- q35 -->
<g id="node22" class="node">
<title>q35</title>
<ellipse fill="none" stroke="#000000" cx="2280.1953" cy="-527.2806" rx="25.5439" ry="25.5439"/>
<text text-anchor="middle" x="2280.1953" y="-523.0806" font-family="Times,serif" font-size="14.00" fill="#000000">q35</text>
</g>
<!-- q17&#45;&gt;q35 -->
<g id="edge42" class="edge">
<title>q17-&gt;q35</title>
<path fill="none" stroke="#000000" d="M1992.441,-631.5455C1996.7522,-606.5231 2007.3229,-569.5789 2033.0429,-550.4806 2095.6806,-503.9692 2193.3193,-511.637 2245.1357,-520.1172"/>
<polygon fill="#000000" stroke="#000000" points="2244.714,-523.5964 2255.1663,-521.864 2245.915,-516.7002 2244.714,-523.5964"/>
<text text-anchor="middle" x="2059.5463" y="-555.4806" font-family="Times,serif" font-size="14.00" fill="#000000">for</text>
</g>
<!-- q26 -->
<g id="node23" class="node">
<title>q26</title>
<ellipse fill="none" stroke="#000000" cx="2280.1953" cy="-162.2806" rx="25.5439" ry="25.5439"/>
<text text-anchor="middle" x="2280.1953" y="-158.0806" font-family="Times,serif" font-size="14.00" fill="#000000">q26</text>
</g>
<!-- q17&#45;&gt;q26 -->
<g id="edge43" class="edge">
<title>q17-&gt;q26</title>
<path fill="none" stroke="#000000" d="M1990.3492,-631.7542C1993.4632,-542.8561 2005.7134,-250.5639 2033.0429,-219.4806 2086.2076,-159.0138 2189.4779,-155.7376 2244.1802,-158.8065"/>
<polygon fill="#000000" stroke="#000000" points="2244.2334,-162.3177 2254.4439,-159.4898 2244.6985,-155.3332 2244.2334,-162.3177"/>
<text text-anchor="middle" x="2059.5463" y="-224.4806" font-family="Times,serif" font-size="14.00" fill="#000000">a-z|A-Z|_</text>
</g>
<!--  Лист операций (if, for, assign, read, write)\n -->
<g id="node57" class="node">
<title> Лист операций (if, for, assign, read, write)\n</title>
<polygon fill="none" stroke="#ff0000" points="2456.4867,-57.2806 2103.904,-57.2806 2103.904,-21.2806 2456.4867,-21.2806 2456.4867,-57.2806"/>
<text text-anchor="middle" x="2280.1953" y="-35.0806" font-family="Times,serif" font-size="14.00" fill="#000000"> Лист операций (if, for, assign, read, write)</text>
</g>
<!-- q17&#45;&gt; Лист операций (if, for, assign, read, write)\n -->
<g id="edge122" class="edge">
<title>q17-&gt; Лист операций (if, for, assign, read, write)\n</title>
<path fill="none" stroke="#000000" d="M1990.3332,-631.7514C1994.1099,-516.8443 2010.7199,-52.3051 2033.0429,-31.4806 2084.1258,16.1731 2170.1318,.0917 2226.0214,-17.952"/>
<polygon fill="#000000" stroke="#000000" points="2225.1548,-21.3528 2235.7486,-21.2099 2227.378,-14.7152 2225.1548,-21.3528"/>
<text text-anchor="middle" x="2059.5463" y="-36.4806" font-family="Times,serif" font-size="14.00" fill="#000000">begin</text>
</g>
<!-- q19 -->
<g id="node24" class="node">
<title>q19</title>
<ellipse fill="none" stroke="#000000" cx="2827.9157" cy="-1478.2806" rx="25.5439" ry="25.5439"/>
<text text-anchor="middle" x="2827.9157" y="-1474.0806" font-family="Times,serif" font-size="14.00" fill="#000000">q19</text>
</g>
<!-- q18&#45;&gt;q19 -->
<g id="edge45" class="edge">
<title>q18-&gt;q19</title>
<path fill="none" stroke="#000000" d="M2305.8784,-1473.5151C2394.735,-1474.3262 2689.2715,-1477.015 2792.1082,-1477.9537"/>
<polygon fill="#000000" stroke="#000000" points="2792.2567,-1481.4551 2802.2883,-1478.0467 2792.3207,-1474.4554 2792.2567,-1481.4551"/>
<text text-anchor="middle" x="2546.3289" y="-1479.4806" font-family="Times,serif" font-size="14.00" fill="#000000">(</text>
</g>
<!-- q21 -->
<g id="node26" class="node">
<title>q21</title>
<ellipse fill="none" stroke="#000000" cx="3300.6423" cy="-1472.2806" rx="25.5439" ry="25.5439"/>
<text text-anchor="middle" x="3300.6423" y="-1468.0806" font-family="Times,serif" font-size="14.00" fill="#000000">q21</text>
</g>
<!-- q18&#45;&gt;q21 -->
<g id="edge51" class="edge">
<title>q18-&gt;q21</title>
<path fill="none" stroke="#000000" d="M2305.6238,-1476.4028C2342.7037,-1480.9305 2413.7925,-1489.517 2474.3409,-1496.2806 2755.161,-1527.6498 2826.0786,-1532.914 3108.5213,-1541.2806 3141.6028,-1542.2606 3151.0484,-1549.9552 3182.9873,-1541.2806 3216.219,-1532.2549 3249.6614,-1511.2181 3272.3518,-1494.7285"/>
<polygon fill="#000000" stroke="#000000" points="3274.5658,-1497.4438 3280.4988,-1488.6659 3270.3868,-1491.828 3274.5658,-1497.4438"/>
<text text-anchor="middle" x="3064.0179" y="-1544.4806" font-family="Times,serif" font-size="14.00" fill="#000000">()</text>
</g>
<!-- q23 -->
<g id="node27" class="node">
<title>q23</title>
<ellipse fill="none" stroke="#000000" cx="2827.9157" cy="-1312.2806" rx="25.5439" ry="25.5439"/>
<text text-anchor="middle" x="2827.9157" y="-1308.0806" font-family="Times,serif" font-size="14.00" fill="#000000">q23</text>
</g>
<!-- q22&#45;&gt;q23 -->
<g id="edge52" class="edge">
<title>q22-&gt;q23</title>
<path fill="none" stroke="#000000" d="M2305.8784,-1312.2806C2394.735,-1312.2806 2689.2715,-1312.2806 2792.1082,-1312.2806"/>
<polygon fill="#000000" stroke="#000000" points="2792.2883,-1315.7807 2802.2883,-1312.2806 2792.2882,-1308.7807 2792.2883,-1315.7807"/>
<text text-anchor="middle" x="2546.3289" y="-1316.4806" font-family="Times,serif" font-size="14.00" fill="#000000">(</text>
</g>
<!-- q25 -->
<g id="node29" class="node">
<title>q25</title>
<ellipse fill="none" stroke="#000000" cx="3300.6423" cy="-1292.2806" rx="25.5439" ry="25.5439"/>
<text text-anchor="middle" x="3300.6423" y="-1288.0806" font-family="Times,serif" font-size="14.00" fill="#000000">q25</text>
</g>
<!-- q22&#45;&gt;q25 -->
<g id="edge58" class="edge">
<title>q22-&gt;q25</title>
<path fill="none" stroke="#000000" d="M2305.6184,-1315.207C2342.6914,-1319.4344 2413.772,-1327.388 2474.3409,-1333.2806 2755.1477,-1360.5997 2826.4198,-1357.0996 3108.5213,-1361.2806 3141.6137,-1361.7711 3151.0484,-1369.9552 3182.9873,-1361.2806 3216.219,-1352.2549 3249.6614,-1331.2181 3272.3518,-1314.7285"/>
<polygon fill="#000000" stroke="#000000" points="3274.5658,-1317.4438 3280.4988,-1308.6659 3270.3868,-1311.828 3274.5658,-1317.4438"/>
<text text-anchor="middle" x="3064.0179" y="-1364.4806" font-family="Times,serif" font-size="14.00" fill="#000000">()</text>
</g>
<!-- q28 -->
<g id="node38" class="node">
<title>q28</title>
<ellipse fill="none" stroke="#000000" cx="2827.9157" cy="-886.2806" rx="25.5439" ry="25.5439"/>
<text text-anchor="middle" x="2827.9157" y="-882.0806" font-family="Times,serif" font-size="14.00" fill="#000000">q28</text>
</g>
<!-- q27&#45;&gt;q28 -->
<g id="edge77" class="edge">
<title>q27-&gt;q28</title>
<path fill="none" stroke="#000000" d="M2305.8784,-848.1562C2394.735,-854.6454 2689.2715,-876.1554 2792.1082,-883.6656"/>
<polygon fill="#000000" stroke="#000000" points="2792.0599,-887.1713 2802.2883,-884.409 2792.5698,-880.1899 2792.0599,-887.1713"/>
<text text-anchor="middle" x="2546.3289" y="-873.4806" font-family="Times,serif" font-size="14.00" fill="#000000">+|-</text>
</g>
<!-- q30 -->
<g id="node40" class="node">
<title>q30</title>
<ellipse fill="none" stroke="#000000" cx="3472.7305" cy="-933.2806" rx="25.5439" ry="25.5439"/>
<text text-anchor="middle" x="3472.7305" y="-929.0806" font-family="Times,serif" font-size="14.00" fill="#000000">q30</text>
</g>
<!-- q27&#45;&gt;q30 -->
<g id="edge88" class="edge">
<title>q27-&gt;q30</title>
<path fill="none" stroke="#000000" d="M2302.6097,-858.8617C2375.7098,-898.672 2614.7623,-1019.2806 2827.9157,-1019.2806 2827.9157,-1019.2806 2827.9157,-1019.2806 3300.6423,-1019.2806 3356.7494,-1019.2806 3413.323,-982.2487 3445.5908,-956.7858"/>
<polygon fill="#000000" stroke="#000000" points="3448.0693,-959.2827 3453.6414,-950.2714 3443.666,-953.841 3448.0693,-959.2827"/>
<text text-anchor="middle" x="3145.7543" y="-1023.4806" font-family="Times,serif" font-size="14.00" fill="#000000">0-9|a-z|A-Z|_</text>
</g>
<!-- q32 -->
<g id="node43" class="node">
<title>q32</title>
<ellipse fill="none" stroke="#000000" cx="2827.9157" cy="-810.2806" rx="25.5439" ry="25.5439"/>
<text text-anchor="middle" x="2827.9157" y="-806.0806" font-family="Times,serif" font-size="14.00" fill="#000000">q32</text>
</g>
<!-- q27&#45;&gt;q32 -->
<g id="edge92" class="edge">
<title>q27-&gt;q32</title>
<path fill="none" stroke="#000000" d="M2305.0894,-839.6629C2341.8014,-830.2799 2412.7714,-813.5727 2474.3409,-807.4806 2590.0743,-796.0292 2728.1548,-803.0605 2792.122,-807.4899"/>
<polygon fill="#000000" stroke="#000000" points="2791.8757,-810.9812 2802.0995,-808.2019 2792.374,-803.9989 2791.8757,-810.9812"/>
<text text-anchor="middle" x="2546.3289" y="-811.4806" font-family="Times,serif" font-size="14.00" fill="#000000">true|false</text>
</g>
<!-- q36 -->
<g id="node31" class="node">
<title>q36</title>
<ellipse fill="none" stroke="#000000" cx="2827.9157" cy="-453.2806" rx="25.5439" ry="25.5439"/>
<text text-anchor="middle" x="2827.9157" y="-449.0806" font-family="Times,serif" font-size="14.00" fill="#000000">q36</text>
</g>
<!-- q35&#45;&gt;q36 -->
<g id="edge61" class="edge">
<title>q35-&gt;q36</title>
<path fill="none" stroke="#000000" d="M2305.5145,-523.8599C2394.0079,-511.9039 2689.6645,-471.9591 2792.3869,-458.0807"/>
<polygon fill="#000000" stroke="#000000" points="2793.1088,-461.5151 2802.5501,-456.7076 2792.1715,-454.5781 2793.1088,-461.5151"/>
<text text-anchor="middle" x="2546.3289" y="-503.4806" font-family="Times,serif" font-size="14.00" fill="#000000">a-z|A-Z|_</text>
</g>
<!-- q26&#45;&gt;q26 -->
<g id="edge44" class="edge">
<title>q26-&gt;q26</title>
<path fill="none" stroke="#000000" d="M2255.8744,-171.2537C2226.9712,-186.2782 2235.0782,-205.8025 2280.1953,-205.8025 2320.0254,-205.8025 2331.0112,-190.5861 2313.1528,-176.6825"/>
<polygon fill="#000000" stroke="#000000" points="2314.8453,-173.6123 2304.5163,-171.2537 2311.12,-179.5387 2314.8453,-173.6123"/>
<text text-anchor="middle" x="2280.1953" y="-210.0025" font-family="Times,serif" font-size="14.00" fill="#000000">a-z|A-Z|0-9|_</text>
</g>
<!-- Арифметические выражение\nсм. q37&#45;q40 -->
<g id="node30" class="node">
<title>Арифметические выражение\nсм. q37-q40</title>
<polygon fill="none" stroke="#ff0000" points="3019.6134,-152.8825 2636.2181,-152.8825 2636.2181,-111.6787 3019.6134,-111.6787 3019.6134,-152.8825"/>
<text text-anchor="middle" x="2827.9157" y="-136.4806" font-family="Times,serif" font-size="14.00" fill="#000000">Арифметические выражение</text>
<text text-anchor="middle" x="2827.9157" y="-119.6806" font-family="Times,serif" font-size="14.00" fill="#000000">см. q37-q40</text>
</g>
<!-- q26&#45;&gt;Арифметические выражение\nсм. q37&#45;q40 -->
<g id="edge59" class="edge">
<title>q26-&gt;Арифметические выражение\nсм. q37-q40</title>
<path fill="none" stroke="#000000" d="M2305.8784,-160.8739C2362.9125,-157.75 2504.6856,-149.9847 2626.1122,-143.3339"/>
<polygon fill="#000000" stroke="#000000" points="2626.5088,-146.8175 2636.3024,-142.7757 2626.1259,-139.828 2626.5088,-146.8175"/>
<text text-anchor="middle" x="2546.3289" y="-155.4806" font-family="Times,serif" font-size="14.00" fill="#000000">:=</text>
</g>
<!-- q20 -->
<g id="node25" class="node">
<title>q20</title>
<ellipse fill="none" stroke="#000000" cx="3145.7543" cy="-1472.2806" rx="25.5439" ry="25.5439"/>
<text text-anchor="middle" x="3145.7543" y="-1468.0806" font-family="Times,serif" font-size="14.00" fill="#000000">q20</text>
</g>
<!-- q19&#45;&gt;q20 -->
<g id="edge46" class="edge">
<title>q19-&gt;q20</title>
<path fill="none" stroke="#000000" d="M2853.6692,-1479.5179C2900.7492,-1481.5264 3003.8419,-1484.7514 3090.5213,-1479.2806 3096.9785,-1478.8731 3103.8351,-1478.2001 3110.4409,-1477.4283"/>
<polygon fill="#000000" stroke="#000000" points="3111.0373,-1480.8809 3120.5213,-1476.1581 3110.1621,-1473.9358 3111.0373,-1480.8809"/>
<text text-anchor="middle" x="3064.0179" y="-1485.4806" font-family="Times,serif" font-size="14.00" fill="#000000">a-z|A-Z|_</text>
</g>
<!-- q20&#45;&gt;q19 -->
<g id="edge48" class="edge">
<title>q20-&gt;q19</title>
<path fill="none" stroke="#000000" d="M3121.2518,-1464.7903C3111.7521,-1462.2487 3100.7236,-1459.7358 3090.5213,-1458.4806 3009.3922,-1448.499 2913.5008,-1462.116 2863.0348,-1471.2388"/>
<polygon fill="#000000" stroke="#000000" points="2862.1696,-1467.8395 2852.9771,-1473.1071 2863.4482,-1474.7218 2862.1696,-1467.8395"/>
<text text-anchor="middle" x="3064.0179" y="-1462.4806" font-family="Times,serif" font-size="14.00" fill="#000000">,</text>
</g>
<!-- q20&#45;&gt;q20 -->
<g id="edge47" class="edge">
<title>q20-&gt;q20</title>
<path fill="none" stroke="#000000" d="M3131.3732,-1493.7777C3128.9294,-1505.3028 3133.7231,-1515.8025 3145.7543,-1515.8025 3154.0258,-1515.8025 3158.8764,-1510.8398 3160.3062,-1503.9929"/>
<polygon fill="#000000" stroke="#000000" points="3163.8022,-1503.7178 3160.1355,-1493.7777 3156.8031,-1503.8348 3163.8022,-1503.7178"/>
<text text-anchor="middle" x="3145.7543" y="-1520.0025" font-family="Times,serif" font-size="14.00" fill="#000000">a-z|A-Z|0-9|_</text>
</g>
<!-- q20&#45;&gt;q21 -->
<g id="edge49" class="edge">
<title>q20-&gt;q21</title>
<path fill="none" stroke="#000000" d="M3171.3309,-1472.2806C3196.8903,-1472.2806 3236.3995,-1472.2806 3265.0214,-1472.2806"/>
<polygon fill="#000000" stroke="#000000" points="3265.0277,-1475.7807 3275.0277,-1472.2806 3265.0277,-1468.7807 3265.0277,-1475.7807"/>
<text text-anchor="middle" x="3229.0538" y="-1476.4806" font-family="Times,serif" font-size="14.00" fill="#000000">)</text>
</g>
<!-- q21&#45;&gt;q17 -->
<g id="edge50" class="edge">
<title>q21-&gt;q17</title>
<path fill="none" stroke="#000000" d="M3278.4001,-1459.2087C3249.0524,-1443.2273 3195.3055,-1418.2806 3145.7543,-1418.2806 2280.1953,-1418.2806 2280.1953,-1418.2806 2280.1953,-1418.2806 2206.9738,-1418.2806 2060.101,-1352.2209 2033.0429,-1311.2806 1998.868,-1259.572 1991.3398,-822.169 1989.8554,-693.0347"/>
<polygon fill="#000000" stroke="#000000" points="1993.3537,-692.8512 1989.7441,-682.8902 1986.3541,-692.928 1993.3537,-692.8512"/>
<text text-anchor="middle" x="2827.9157" y="-1422.4806" font-family="Times,serif" font-size="14.00" fill="#000000">;</text>
</g>
<!-- q24 -->
<g id="node28" class="node">
<title>q24</title>
<ellipse fill="none" stroke="#000000" cx="3145.7543" cy="-1292.2806" rx="25.5439" ry="25.5439"/>
<text text-anchor="middle" x="3145.7543" y="-1288.0806" font-family="Times,serif" font-size="14.00" fill="#000000">q24</text>
</g>
<!-- q23&#45;&gt;q24 -->
<g id="edge53" class="edge">
<title>q23-&gt;q24</title>
<path fill="none" stroke="#000000" d="M2853.7548,-1313.0575C2900.9722,-1314.1304 3004.2776,-1314.872 3090.5213,-1304.2806 3097.1047,-1303.4721 3104.0622,-1302.254 3110.7372,-1300.8989"/>
<polygon fill="#000000" stroke="#000000" points="3111.8683,-1304.2351 3120.8998,-1298.6959 3110.3853,-1297.394 3111.8683,-1304.2351"/>
<text text-anchor="middle" x="3064.0179" y="-1312.4806" font-family="Times,serif" font-size="14.00" fill="#000000">a-z|A-Z|_</text>
</g>
<!-- q24&#45;&gt;q23 -->
<g id="edge55" class="edge">
<title>q24-&gt;q23</title>
<path fill="none" stroke="#000000" d="M3120.558,-1287.407C3111.1686,-1285.818 3100.3947,-1284.2622 3090.5213,-1283.4806 3008.7789,-1277.0096 2913.1308,-1293.6234 2862.8674,-1304.2345"/>
<polygon fill="#000000" stroke="#000000" points="2861.8879,-1300.8652 2852.852,-1306.3972 2863.3655,-1307.7075 2861.8879,-1300.8652"/>
<text text-anchor="middle" x="3064.0179" y="-1287.4806" font-family="Times,serif" font-size="14.00" fill="#000000">,</text>
</g>
<!-- q24&#45;&gt;q24 -->
<g id="edge54" class="edge">
<title>q24-&gt;q24</title>
<path fill="none" stroke="#000000" d="M3131.3732,-1313.7777C3128.9294,-1325.3028 3133.7231,-1335.8025 3145.7543,-1335.8025 3154.0258,-1335.8025 3158.8764,-1330.8398 3160.3062,-1323.9929"/>
<polygon fill="#000000" stroke="#000000" points="3163.8022,-1323.7178 3160.1355,-1313.7777 3156.8031,-1323.8348 3163.8022,-1323.7178"/>
<text text-anchor="middle" x="3145.7543" y="-1340.0025" font-family="Times,serif" font-size="14.00" fill="#000000">a-z|A-Z|0-9|_</text>
</g>
<!-- q24&#45;&gt;q25 -->
<g id="edge56" class="edge">
<title>q24-&gt;q25</title>
<path fill="none" stroke="#000000" d="M3171.3309,-1292.2806C3196.8903,-1292.2806 3236.3995,-1292.2806 3265.0214,-1292.2806"/>
<polygon fill="#000000" stroke="#000000" points="3265.0277,-1295.7807 3275.0277,-1292.2806 3265.0277,-1288.7807 3265.0277,-1295.7807"/>
<text text-anchor="middle" x="3229.0538" y="-1296.4806" font-family="Times,serif" font-size="14.00" fill="#000000">)</text>
</g>
<!-- q25&#45;&gt;q17 -->
<g id="edge57" class="edge">
<title>q25-&gt;q17</title>
<path fill="none" stroke="#000000" d="M3276.7175,-1283.2644C3253.2302,-1274.8691 3216.1964,-1262.8399 3182.9873,-1257.2806 3056.8549,-1236.1658 2125.0967,-1297.0575 2033.0429,-1208.2806 2014.4374,-1190.3374 1996.316,-812.1662 1991.0475,-692.9481"/>
<polygon fill="#000000" stroke="#000000" points="1994.5407,-692.7154 1990.6059,-682.8783 1987.5474,-693.0221 1994.5407,-692.7154"/>
<text text-anchor="middle" x="2827.9157" y="-1261.4806" font-family="Times,serif" font-size="14.00" fill="#000000">;</text>
</g>
<!-- Арифметические выражение\nсм. q37&#45;q40&#45;&gt;q17 -->
<g id="edge60" class="edge">
<title>Арифметические выражение\nсм. q37-q40-&gt;q17</title>
<path fill="none" stroke="#000000" d="M2660.2829,-111.659C2478.4017,-92.0168 2200.9945,-70.8106 2104.0497,-110.4806 2063.0932,-127.2401 2051.9912,-140.2895 2033.0429,-180.2806 2014.282,-219.8764 1996.9131,-517.5868 1991.3603,-621.5683"/>
<polygon fill="#000000" stroke="#000000" points="1987.8641,-621.4067 1990.8305,-631.5778 1994.8543,-621.7768 1987.8641,-621.4067"/>
<text text-anchor="middle" x="2280.1953" y="-115.4806" font-family="Times,serif" font-size="14.00" fill="#000000">;</text>
</g>
<!-- q36&#45;&gt;q36 -->
<g id="edge62" class="edge">
<title>q36-&gt;q36</title>
<path fill="none" stroke="#000000" d="M2803.6409,-461.4002C2770.5038,-476.5274 2778.5954,-496.8025 2827.9157,-496.8025 2872.227,-496.8025 2883.2588,-480.4366 2861.0112,-466.1419"/>
<polygon fill="#000000" stroke="#000000" points="2862.6558,-463.0524 2852.1906,-461.4002 2859.3413,-469.218 2862.6558,-463.0524"/>
<text text-anchor="middle" x="2827.9157" y="-501.0025" font-family="Times,serif" font-size="14.00" fill="#000000">a-z|A-Z|0-9|_</text>
</g>
<!-- q37 -->
<g id="node32" class="node">
<title>q37</title>
<ellipse fill="none" stroke="#000000" cx="3145.7543" cy="-453.2806" rx="25.5439" ry="25.5439"/>
<text text-anchor="middle" x="3145.7543" y="-449.0806" font-family="Times,serif" font-size="14.00" fill="#000000">q37</text>
</g>
<!-- q36&#45;&gt;q37 -->
<g id="edge63" class="edge">
<title>q36-&gt;q37</title>
<path fill="none" stroke="#000000" d="M2853.6566,-453.2806C2910.2136,-453.2806 3045.4137,-453.2806 3110.0956,-453.2806"/>
<polygon fill="#000000" stroke="#000000" points="3110.2168,-456.7807 3120.2167,-453.2806 3110.2167,-449.7807 3110.2168,-456.7807"/>
<text text-anchor="middle" x="3064.0179" y="-457.4806" font-family="Times,serif" font-size="14.00" fill="#000000">:=</text>
</g>
<!-- q37&#45;&gt;q37 -->
<g id="edge74" class="edge">
<title>q37-&gt;q37</title>
<path fill="none" stroke="#000000" d="M3131.3732,-474.7777C3128.9294,-486.3028 3133.7231,-496.8025 3145.7543,-496.8025 3154.0258,-496.8025 3158.8764,-491.8398 3160.3062,-484.9929"/>
<polygon fill="#000000" stroke="#000000" points="3163.8022,-484.7178 3160.1355,-474.7777 3156.8031,-484.8348 3163.8022,-484.7178"/>
<text text-anchor="middle" x="3145.7543" y="-501.0025" font-family="Times,serif" font-size="14.00" fill="#000000">-|+</text>
</g>
<!-- q38 -->
<g id="node33" class="node">
<title>q38</title>
<ellipse fill="none" stroke="#000000" cx="3300.6423" cy="-453.2806" rx="25.5439" ry="25.5439"/>
<text text-anchor="middle" x="3300.6423" y="-449.0806" font-family="Times,serif" font-size="14.00" fill="#000000">q38</text>
</g>
<!-- q37&#45;&gt;q38 -->
<g id="edge64" class="edge">
<title>q37-&gt;q38</title>
<path fill="none" stroke="#000000" d="M3171.3309,-453.2806C3196.8903,-453.2806 3236.3995,-453.2806 3265.0214,-453.2806"/>
<polygon fill="#000000" stroke="#000000" points="3265.0277,-456.7807 3275.0277,-453.2806 3265.0277,-449.7807 3265.0277,-456.7807"/>
<text text-anchor="middle" x="3229.0538" y="-457.4806" font-family="Times,serif" font-size="14.00" fill="#000000">0-9</text>
</g>
<!-- q39 -->
<g id="node34" class="node">
<title>q39</title>
<ellipse fill="none" stroke="#000000" cx="3869.2469" cy="-408.2806" rx="25.5439" ry="25.5439"/>
<text text-anchor="middle" x="3869.2469" y="-404.0806" font-family="Times,serif" font-size="14.00" fill="#000000">q39</text>
</g>
<!-- q37&#45;&gt;q39 -->
<g id="edge65" class="edge">
<title>q37-&gt;q39</title>
<path fill="none" stroke="#000000" d="M3169.2519,-442.5886C3205.7672,-426.5909 3278.7492,-397.0676 3344.1642,-385.4806 3526.3675,-353.2069 3749.3989,-386.372 3834.2396,-401.5526"/>
<polygon fill="#000000" stroke="#000000" points="3833.6559,-405.0038 3844.1212,-403.3522 3834.9102,-398.1171 3833.6559,-405.0038"/>
<text text-anchor="middle" x="3386.6864" y="-390.4806" font-family="Times,serif" font-size="14.00" fill="#000000">a-z|A-Z|_</text>
</g>
<!-- q38&#45;&gt;q38 -->
<g id="edge73" class="edge">
<title>q38-&gt;q38</title>
<path fill="none" stroke="#000000" d="M3287.905,-475.6735C3286.1426,-486.8412 3290.3884,-496.8025 3300.6423,-496.8025 3307.5316,-496.8025 3311.7088,-492.3058 3313.1738,-485.9677"/>
<polygon fill="#000000" stroke="#000000" points="3316.6789,-485.7415 3313.3795,-475.6735 3309.6803,-485.6015 3316.6789,-485.7415"/>
<text text-anchor="middle" x="3300.6423" y="-501.0025" font-family="Times,serif" font-size="14.00" fill="#000000">0-9</text>
</g>
<!-- q40 -->
<g id="node35" class="node">
<title>q40</title>
<ellipse fill="none" stroke="#000000" cx="3472.7305" cy="-418.2806" rx="25.5439" ry="25.5439"/>
<text text-anchor="middle" x="3472.7305" y="-414.0806" font-family="Times,serif" font-size="14.00" fill="#000000">q40</text>
</g>
<!-- q38&#45;&gt;q40 -->
<g id="edge66" class="edge">
<title>q38-&gt;q40</title>
<path fill="none" stroke="#000000" d="M3326.0739,-451.0788C3352.2315,-448.453 3394.0071,-443.2506 3429.2086,-434.2806 3432.5874,-433.4196 3436.0687,-432.392 3439.5211,-431.2787"/>
<polygon fill="#000000" stroke="#000000" points="3440.7561,-434.5551 3449.0652,-427.9818 3438.4705,-427.9388 3440.7561,-434.5551"/>
<text text-anchor="middle" x="3386.6864" y="-453.4806" font-family="Times,serif" font-size="14.00" fill="#000000">+|-|*|div</text>
</g>
<!-- Арифметическое выражение\nсм. q37&#45;q40 -->
<g id="node36" class="node">
<title>Арифметическое выражение\nсм. q37-q40</title>
<polygon fill="none" stroke="#ff0000" points="4534.0074,-499.8825 4151.9333,-499.8825 4151.9333,-458.6787 4534.0074,-458.6787 4534.0074,-499.8825"/>
<text text-anchor="middle" x="4342.9703" y="-483.4806" font-family="Times,serif" font-size="14.00" fill="#000000">Арифметическое выражение</text>
<text text-anchor="middle" x="4342.9703" y="-466.6806" font-family="Times,serif" font-size="14.00" fill="#000000">см. q37-q40</text>
</g>
<!-- q38&#45;&gt;Арифметическое выражение\nсм. q37&#45;q40 -->
<g id="edge71" class="edge">
<title>q38-&gt;Арифметическое выражение\nсм. q37-q40</title>
<path fill="none" stroke="#000000" d="M3324.2833,-463.5477C3330.6488,-466.0262 3337.5934,-468.4766 3344.1642,-470.2806 3388.9245,-482.5694 3400.947,-483.4902 3447.2086,-487.2806 3469.819,-489.1332 3475.5665,-487.388 3498.2524,-487.2806 3718.2557,-486.2389 3970.4787,-483.671 4141.617,-481.7233"/>
<polygon fill="#000000" stroke="#000000" points="4141.7876,-485.2217 4151.747,-481.6076 4141.7076,-478.2221 4141.7876,-485.2217"/>
<text text-anchor="middle" x="3588.2404" y="-491.4806" font-family="Times,serif" font-size="14.00" fill="#000000">to|downto</text>
</g>
<!-- q39&#45;&gt;q39 -->
<g id="edge68" class="edge">
<title>q39-&gt;q39</title>
<path fill="none" stroke="#000000" d="M3844.9721,-416.4002C3811.835,-431.5274 3819.9266,-451.8025 3869.2469,-451.8025 3913.5582,-451.8025 3924.59,-435.4366 3902.3424,-421.1419"/>
<polygon fill="#000000" stroke="#000000" points="3903.987,-418.0524 3893.5218,-416.4002 3900.6725,-424.218 3903.987,-418.0524"/>
<text text-anchor="middle" x="3869.2469" y="-456.0025" font-family="Times,serif" font-size="14.00" fill="#000000">a-z|A-Z|0-9|_</text>
</g>
<!-- q39&#45;&gt;q40 -->
<g id="edge67" class="edge">
<title>q39-&gt;q40</title>
<path fill="none" stroke="#000000" d="M3843.7625,-404.8745C3785.3501,-397.7313 3637.491,-383.4303 3516.2524,-403.4806 3513.0242,-404.0145 3509.7136,-404.757 3506.4299,-405.6276"/>
<polygon fill="#000000" stroke="#000000" points="3505.331,-402.3032 3496.7687,-408.5431 3507.3535,-409.0047 3505.331,-402.3032"/>
<text text-anchor="middle" x="3588.2404" y="-408.4806" font-family="Times,serif" font-size="14.00" fill="#000000">+|-|*|div</text>
</g>
<!-- q39&#45;&gt;Арифметическое выражение\nсм. q37&#45;q40 -->
<g id="edge72" class="edge">
<title>q39-&gt;Арифметическое выражение\nсм. q37-q40</title>
<path fill="none" stroke="#000000" d="M3894.7164,-412.0979C3950.579,-420.4704 4087.4902,-440.9901 4195.418,-457.166"/>
<polygon fill="#000000" stroke="#000000" points="4195.0296,-460.6468 4205.4379,-458.6677 4196.0672,-453.7241 4195.0296,-460.6468"/>
<text text-anchor="middle" x="4106.1086" y="-450.4806" font-family="Times,serif" font-size="14.00" fill="#000000">to|downto</text>
</g>
<!-- q40&#45;&gt;q38 -->
<g id="edge69" class="edge">
<title>q40-&gt;q38</title>
<path fill="none" stroke="#000000" d="M3447.5935,-411.6228C3420.9452,-405.8516 3378.1032,-400.3021 3344.1642,-413.4806 3336.9461,-416.2834 3330.1945,-420.9035 3324.2638,-426.0226"/>
<polygon fill="#000000" stroke="#000000" points="3321.5592,-423.7643 3316.7185,-433.1886 3326.3797,-428.84 3321.5592,-423.7643"/>
<text text-anchor="middle" x="3386.6864" y="-418.4806" font-family="Times,serif" font-size="14.00" fill="#000000">0-9</text>
</g>
<!-- q40&#45;&gt;q39 -->
<g id="edge70" class="edge">
<title>q40-&gt;q39</title>
<path fill="none" stroke="#000000" d="M3498.4988,-419.6607C3504.3349,-419.9187 3510.5054,-420.1486 3516.2524,-420.2806 3580.2249,-421.7497 3596.2654,-422.1152 3660.2284,-420.2806 3721.0588,-418.5359 3791.7247,-413.9406 3833.3424,-410.9696"/>
<polygon fill="#000000" stroke="#000000" points="3833.8031,-414.4455 3843.5247,-410.2336 3833.2984,-407.4637 3833.8031,-414.4455"/>
<text text-anchor="middle" x="3588.2404" y="-426.4806" font-family="Times,serif" font-size="14.00" fill="#000000">a-z|A-Z|_</text>
</g>
<!-- q40&#45;&gt;q40 -->
<g id="edge75" class="edge">
<title>q40-&gt;q40</title>
<path fill="none" stroke="#000000" d="M3457.4913,-438.8777C3454.3813,-450.7503 3459.461,-461.8025 3472.7305,-461.8025 3482.0607,-461.8025 3487.3419,-456.3385 3488.5742,-448.9671"/>
<polygon fill="#000000" stroke="#000000" points="3492.0616,-448.6505 3487.9698,-438.8777 3485.0742,-449.0692 3492.0616,-448.6505"/>
<text text-anchor="middle" x="3472.7305" y="-466.0025" font-family="Times,serif" font-size="14.00" fill="#000000">+|-</text>
</g>
<!-- q41 -->
<g id="node37" class="node">
<title>q41</title>
<ellipse fill="none" stroke="#000000" cx="4797.3912" cy="-479.2806" rx="25.5439" ry="25.5439"/>
<text text-anchor="middle" x="4797.3912" y="-475.0806" font-family="Times,serif" font-size="14.00" fill="#000000">q41</text>
</g>
<!-- Арифметическое выражение\nсм. q37&#45;q40&#45;&gt;q41 -->
<g id="edge76" class="edge">
<title>Арифметическое выражение\nсм. q37-q40-&gt;q41</title>
<path fill="none" stroke="#000000" d="M4534.0396,-479.2806C4619.5167,-479.2806 4711.9974,-479.2806 4761.4093,-479.2806"/>
<polygon fill="#000000" stroke="#000000" points="4761.5708,-482.7807 4771.5707,-479.2806 4761.5707,-475.7807 4761.5708,-482.7807"/>
<text text-anchor="middle" x="4578.4922" y="-483.4806" font-family="Times,serif" font-size="14.00" fill="#000000">do</text>
</g>
<!-- q41&#45;&gt;q35 -->
<g id="edge113" class="edge">
<title>q41-&gt;q35</title>
<path fill="none" stroke="#000000" d="M4772.4469,-485.3957C4704.1777,-501.5765 4508.3385,-544.2806 4342.9703,-544.2806 3588.2404,-544.2806 3588.2404,-544.2806 3588.2404,-544.2806 3517.5551,-544.2806 3499.8902,-543.2105 3429.2086,-542.4806 3372.0686,-541.8906 3357.7854,-541.2806 3300.6423,-541.2806 2827.9157,-541.2806 2827.9157,-541.2806 2827.9157,-541.2806 2634.7891,-541.2806 2403.4832,-532.4747 2316.0333,-528.8306"/>
<polygon fill="#000000" stroke="#000000" points="2315.9931,-525.326 2305.8549,-528.4026 2315.699,-532.3198 2315.9931,-525.326"/>
<text text-anchor="middle" x="3386.6864" y="-547.4806" font-family="Times,serif" font-size="14.00" fill="#000000">for</text>
</g>
<!-- Ввод\nсм. q18&#45;q21 -->
<g id="node51" class="node">
<title>Ввод\nсм. q18-q21</title>
<polygon fill="none" stroke="#ff0000" points="5287.3504,-639.8825 5183.0281,-639.8825 5183.0281,-598.6787 5287.3504,-598.6787 5287.3504,-639.8825"/>
<text text-anchor="middle" x="5235.1892" y="-623.4806" font-family="Times,serif" font-size="14.00" fill="#000000">Ввод</text>
<text text-anchor="middle" x="5235.1892" y="-606.6806" font-family="Times,serif" font-size="14.00" fill="#000000">см. q18-q21</text>
</g>
<!-- q41&#45;&gt;Ввод\nсм. q18&#45;q21 -->
<g id="edge109" class="edge">
<title>q41-&gt;Ввод\nсм. q18-q21</title>
<path fill="none" stroke="#000000" d="M4820.4427,-490.4744C4865.5705,-511.9729 4969.176,-559.2959 5060.7936,-586.2806 5097.2249,-597.0109 5138.9999,-605.0582 5172.5289,-610.5187"/>
<polygon fill="#000000" stroke="#000000" points="5172.2287,-614.0149 5182.6546,-612.1304 5173.3291,-607.1019 5172.2287,-614.0149"/>
<text text-anchor="middle" x="5016.2902" y="-584.4806" font-family="Times,serif" font-size="14.00" fill="#000000">read</text>
</g>
<!-- Вывод\nсм. q22&#45;q25 -->
<g id="node52" class="node">
<title>Вывод\nсм. q22-q25</title>
<polygon fill="none" stroke="#ff0000" points="5287.3504,-576.8825 5183.0281,-576.8825 5183.0281,-535.6787 5287.3504,-535.6787 5287.3504,-576.8825"/>
<text text-anchor="middle" x="5235.1892" y="-560.4806" font-family="Times,serif" font-size="14.00" fill="#000000">Вывод</text>
<text text-anchor="middle" x="5235.1892" y="-543.6806" font-family="Times,serif" font-size="14.00" fill="#000000">см. q22-q25</text>
</g>
<!-- q41&#45;&gt;Вывод\nсм. q22&#45;q25 -->
<g id="edge111" class="edge">
<title>q41-&gt;Вывод\nсм. q22-q25</title>
<path fill="none" stroke="#000000" d="M4823.2593,-479.114C4868.8871,-479.5687 4966.0935,-483.9138 5042.7936,-510.4806 5051.6093,-513.5341 5052.0929,-517.9135 5060.7936,-521.2806 5096.5499,-535.1179 5138.6434,-543.7658 5172.5169,-549.0032"/>
<polygon fill="#000000" stroke="#000000" points="5172.344,-552.5158 5182.7494,-550.5211 5173.3712,-545.5916 5172.344,-552.5158"/>
<text text-anchor="middle" x="5016.2902" y="-515.4806" font-family="Times,serif" font-size="14.00" fill="#000000">write</text>
</g>
<!-- Условный оператор if\nсм. 27&#45;... -->
<g id="node53" class="node">
<title>Условный оператор if\nсм. 27-...</title>
<polygon fill="none" stroke="#ff0000" points="5378.1701,-395.8825 5092.2084,-395.8825 5092.2084,-354.6787 5378.1701,-354.6787 5378.1701,-395.8825"/>
<text text-anchor="middle" x="5235.1892" y="-379.4806" font-family="Times,serif" font-size="14.00" fill="#000000">Условный оператор if</text>
<text text-anchor="middle" x="5235.1892" y="-362.6806" font-family="Times,serif" font-size="14.00" fill="#000000">см. 27-...</text>
</g>
<!-- q41&#45;&gt;Условный оператор if\nсм. 27&#45;... -->
<g id="edge114" class="edge">
<title>q41-&gt;Условный оператор if\nсм. 27-...</title>
<path fill="none" stroke="#000000" d="M4822.5016,-473.3156C4882.3741,-459.0927 5036.1255,-422.5687 5138.1126,-398.3414"/>
<polygon fill="#000000" stroke="#000000" points="5139.2031,-401.6798 5148.1234,-395.9633 5137.5852,-394.8694 5139.2031,-401.6798"/>
<text text-anchor="middle" x="5016.2902" y="-438.4806" font-family="Times,serif" font-size="14.00" fill="#000000">if</text>
</g>
<!-- q42 -->
<g id="node54" class="node">
<title>q42</title>
<ellipse fill="none" stroke="#000000" cx="5235.1892" cy="-452.2806" rx="25.5439" ry="25.5439"/>
<text text-anchor="middle" x="5235.1892" y="-448.0806" font-family="Times,serif" font-size="14.00" fill="#000000">q42</text>
</g>
<!-- q41&#45;&gt;q42 -->
<g id="edge116" class="edge">
<title>q41-&gt;q42</title>
<path fill="none" stroke="#000000" d="M4823.143,-477.6924C4897.6585,-473.0969 5113.6274,-459.7776 5199.4324,-454.4858"/>
<polygon fill="#000000" stroke="#000000" points="5199.7043,-457.9758 5209.4699,-453.8668 5199.2734,-450.9891 5199.7043,-457.9758"/>
<text text-anchor="middle" x="5016.2902" y="-472.4806" font-family="Times,serif" font-size="14.00" fill="#000000">a-z|A-Z|_</text>
</g>
<!-- Лист операций (if, for, assign, read, write)\n -->
<g id="node56" class="node">
<title>Лист операций (if, for, assign, read, write)\n</title>
<polygon fill="none" stroke="#ff0000" points="5409.4805,-333.2806 5060.898,-333.2806 5060.898,-297.2806 5409.4805,-297.2806 5409.4805,-333.2806"/>
<text text-anchor="middle" x="5235.1892" y="-311.0806" font-family="Times,serif" font-size="14.00" fill="#000000">Лист операций (if, for, assign, read, write)</text>
</g>
<!-- q41&#45;&gt;Лист операций (if, for, assign, read, write)\n -->
<g id="edge120" class="edge">
<title>q41-&gt;Лист операций (if, for, assign, read, write)\n</title>
<path fill="none" stroke="#000000" d="M4818.9564,-465.4502C4862.7117,-438.0496 4965.8391,-376.7981 5060.7936,-345.2806 5071.7277,-341.6514 5083.2006,-338.4416 5094.8197,-335.6064"/>
<polygon fill="#000000" stroke="#000000" points="5095.6687,-339.0023 5104.6056,-333.3119 5094.0707,-332.1872 5095.6687,-339.0023"/>
<text text-anchor="middle" x="5016.2902" y="-376.4806" font-family="Times,serif" font-size="14.00" fill="#000000">begin</text>
</g>
<!-- q28&#45;&gt;q28 -->
<g id="edge86" class="edge">
<title>q28-&gt;q28</title>
<path fill="none" stroke="#000000" d="M2803.6409,-894.4002C2770.5038,-909.5274 2778.5954,-929.8025 2827.9157,-929.8025 2872.227,-929.8025 2883.2588,-913.4366 2861.0112,-899.1419"/>
<polygon fill="#000000" stroke="#000000" points="2862.6558,-896.0524 2852.1906,-894.4002 2859.3413,-902.218 2862.6558,-896.0524"/>
<text text-anchor="middle" x="2827.9157" y="-934.0025" font-family="Times,serif" font-size="14.00" fill="#000000">-|+</text>
</g>
<!-- q29 -->
<g id="node39" class="node">
<title>q29</title>
<ellipse fill="none" stroke="#000000" cx="3145.7543" cy="-882.2806" rx="25.5439" ry="25.5439"/>
<text text-anchor="middle" x="3145.7543" y="-878.0806" font-family="Times,serif" font-size="14.00" fill="#000000">q29</text>
</g>
<!-- q28&#45;&gt;q29 -->
<g id="edge78" class="edge">
<title>q28-&gt;q29</title>
<path fill="none" stroke="#000000" d="M2853.6566,-885.9567C2910.2136,-885.2449 3045.4137,-883.5434 3110.0956,-882.7294"/>
<polygon fill="#000000" stroke="#000000" points="3110.2616,-886.2277 3120.2167,-882.602 3110.1735,-879.2282 3110.2616,-886.2277"/>
<text text-anchor="middle" x="3064.0179" y="-887.4806" font-family="Times,serif" font-size="14.00" fill="#000000">0-9</text>
</g>
<!-- q28&#45;&gt;q30 -->
<g id="edge79" class="edge">
<title>q28-&gt;q30</title>
<path fill="none" stroke="#000000" d="M2852.433,-893.375C2900.8903,-907.08 3012.5525,-937.0923 3108.5213,-951.2806 3181.9287,-962.1333 3200.9554,-959.8348 3275.1203,-962.2806 3297.7942,-963.0283 3303.5297,-963.8112 3326.1642,-962.2806 3372.2772,-959.1624 3384.2443,-958.9735 3429.2086,-948.2806 3432.3964,-947.5225 3435.6795,-946.6225 3438.9456,-945.6455"/>
<polygon fill="#000000" stroke="#000000" points="3440.1313,-948.9408 3448.5803,-942.5482 3437.9889,-942.2767 3440.1313,-948.9408"/>
<text text-anchor="middle" x="3229.0538" y="-965.4806" font-family="Times,serif" font-size="14.00" fill="#000000">a-z|A-Z|_</text>
</g>
<!-- q29&#45;&gt;q29 -->
<g id="edge85" class="edge">
<title>q29-&gt;q29</title>
<path fill="none" stroke="#000000" d="M3131.3732,-903.7777C3128.9294,-915.3028 3133.7231,-925.8025 3145.7543,-925.8025 3154.0258,-925.8025 3158.8764,-920.8398 3160.3062,-913.9929"/>
<polygon fill="#000000" stroke="#000000" points="3163.8022,-913.7178 3160.1355,-903.7777 3156.8031,-913.8348 3163.8022,-913.7178"/>
<text text-anchor="middle" x="3145.7543" y="-930.0025" font-family="Times,serif" font-size="14.00" fill="#000000">0-9</text>
</g>
<!-- q31 -->
<g id="node41" class="node">
<title>q31</title>
<ellipse fill="none" stroke="#000000" cx="3300.6423" cy="-893.2806" rx="25.5439" ry="25.5439"/>
<text text-anchor="middle" x="3300.6423" y="-889.0806" font-family="Times,serif" font-size="14.00" fill="#000000">q31</text>
</g>
<!-- q29&#45;&gt;q31 -->
<g id="edge80" class="edge">
<title>q29-&gt;q31</title>
<path fill="none" stroke="#000000" d="M3170.2499,-889.8792C3179.7487,-892.4576 3190.7785,-895.0069 3200.9873,-896.2806 3225.7434,-899.3693 3232.1871,-897.1389 3257.1203,-896.2806 3259.6372,-896.194 3262.2344,-896.0792 3264.8487,-895.9451"/>
<polygon fill="#000000" stroke="#000000" points="3265.1069,-899.4361 3274.8824,-895.3507 3264.6928,-892.4483 3265.1069,-899.4361"/>
<text text-anchor="middle" x="3229.0538" y="-901.4806" font-family="Times,serif" font-size="14.00" fill="#000000">+|-|*|div</text>
</g>
<!-- Арифметическое выражение\nсм. q27&#45;q31\n -->
<g id="node42" class="node">
<title>Арифметическое выражение\nсм. q27-q31\n</title>
<polygon fill="none" stroke="#ff0000" points="4060.284,-917.8825 3678.2099,-917.8825 3678.2099,-876.6787 4060.284,-876.6787 4060.284,-917.8825"/>
<text text-anchor="middle" x="3869.2469" y="-901.4806" font-family="Times,serif" font-size="14.00" fill="#000000">Арифметическое выражение</text>
<text text-anchor="middle" x="3869.2469" y="-884.6806" font-family="Times,serif" font-size="14.00" fill="#000000">см. q27-q31</text>
</g>
<!-- q29&#45;&gt;Арифметическое выражение\nсм. q27&#45;q31\n -->
<g id="edge90" class="edge">
<title>q29-&gt;Арифметическое выражение\nсм. q27-q31\n</title>
<path fill="none" stroke="#000000" d="M3170.3644,-875.4023C3179.8773,-872.9124 3190.8868,-870.2353 3200.9873,-868.2806 3233.6281,-861.9638 3241.9486,-860.5078 3275.1203,-858.2806 3422.962,-848.3542 3591.5177,-861.7721 3711.2366,-875.5037"/>
<polygon fill="#000000" stroke="#000000" points="3710.8792,-878.9856 3721.216,-876.662 3711.6863,-872.0323 3710.8792,-878.9856"/>
<text text-anchor="middle" x="3386.6864" y="-858.4806" font-family="Times,serif" font-size="14.00" fill="#000000">=|&lt;&gt;|&lt;|&lt;=|&gt;=|&gt;</text>
</g>
<!-- q30&#45;&gt;q30 -->
<g id="edge82" class="edge">
<title>q30-&gt;q30</title>
<path fill="none" stroke="#000000" d="M3457.4913,-953.8777C3454.3813,-965.7503 3459.461,-976.8025 3472.7305,-976.8025 3482.0607,-976.8025 3487.3419,-971.3385 3488.5742,-963.9671"/>
<polygon fill="#000000" stroke="#000000" points="3492.0616,-963.6505 3487.9698,-953.8777 3485.0742,-964.0692 3492.0616,-963.6505"/>
<text text-anchor="middle" x="3472.7305" y="-981.0025" font-family="Times,serif" font-size="14.00" fill="#000000">a-z|A-Z|0-9|_</text>
</g>
<!-- q30&#45;&gt;q31 -->
<g id="edge81" class="edge">
<title>q30-&gt;q31</title>
<path fill="none" stroke="#000000" d="M3447.2282,-930.6146C3421.0142,-927.4813 3379.1945,-921.3848 3344.1642,-911.2806 3340.7614,-910.2991 3337.2643,-909.1345 3333.802,-907.8768"/>
<polygon fill="#000000" stroke="#000000" points="3334.8333,-904.5225 3324.2447,-904.1606 3332.2965,-911.0467 3334.8333,-904.5225"/>
<text text-anchor="middle" x="3386.6864" y="-931.4806" font-family="Times,serif" font-size="14.00" fill="#000000">+|-|*|div</text>
</g>
<!-- q30&#45;&gt;Арифметическое выражение\nсм. q27&#45;q31\n -->
<g id="edge89" class="edge">
<title>q30-&gt;Арифметическое выражение\nсм. q27-q31\n</title>
<path fill="none" stroke="#000000" d="M3498.4416,-930.9463C3533.7,-927.7451 3600.3696,-921.6922 3667.564,-915.5916"/>
<polygon fill="#000000" stroke="#000000" points="3668.2696,-919.042 3677.9121,-914.652 3667.6366,-912.0706 3668.2696,-919.042"/>
<text text-anchor="middle" x="3588.2404" y="-932.4806" font-family="Times,serif" font-size="14.00" fill="#000000">=|&lt;&gt;|&lt;|&lt;=|&gt;=|&gt;|and|or|xor</text>
</g>
<!-- q31&#45;&gt;q29 -->
<g id="edge83" class="edge">
<title>q31-&gt;q29</title>
<path fill="none" stroke="#000000" d="M3277.6685,-881.9489C3271.181,-879.288 3264.009,-876.8349 3257.1203,-875.4806 3231.852,-870.5131 3202.7939,-872.5389 3180.6968,-875.6342"/>
<polygon fill="#000000" stroke="#000000" points="3180.1164,-872.1822 3170.7647,-877.1618 3181.1805,-879.1009 3180.1164,-872.1822"/>
<text text-anchor="middle" x="3229.0538" y="-879.4806" font-family="Times,serif" font-size="14.00" fill="#000000">0-9</text>
</g>
<!-- q31&#45;&gt;q30 -->
<g id="edge84" class="edge">
<title>q31-&gt;q30</title>
<path fill="none" stroke="#000000" d="M3325.8823,-886.9825C3352.6166,-881.5997 3395.5297,-876.695 3429.2086,-890.4806 3437.07,-893.6985 3444.2752,-899.0973 3450.4645,-904.9958"/>
<polygon fill="#000000" stroke="#000000" points="3448.2962,-907.7931 3457.7338,-912.6079 3453.3587,-902.9586 3448.2962,-907.7931"/>
<text text-anchor="middle" x="3386.6864" y="-894.4806" font-family="Times,serif" font-size="14.00" fill="#000000">a-z|A-Z|_</text>
</g>
<!-- q31&#45;&gt;q31 -->
<g id="edge87" class="edge">
<title>q31-&gt;q31</title>
<path fill="none" stroke="#000000" d="M3287.905,-915.6735C3286.1426,-926.8412 3290.3884,-936.8025 3300.6423,-936.8025 3307.5316,-936.8025 3311.7088,-932.3058 3313.1738,-925.9677"/>
<polygon fill="#000000" stroke="#000000" points="3316.6789,-925.7415 3313.3795,-915.6735 3309.6803,-925.6015 3316.6789,-925.7415"/>
<text text-anchor="middle" x="3300.6423" y="-941.0025" font-family="Times,serif" font-size="14.00" fill="#000000">+|-</text>
</g>
<!-- Арифметическое выражение\nсм. q27&#45;q31\n&#45;&gt;q27 -->
<g id="edge91" class="edge">
<title>Арифметическое выражение\nсм. q27-q31\n-&gt;q27</title>
<path fill="none" stroke="#000000" d="M3803.7381,-917.918C3729.9973,-940.6567 3606.3566,-977.3084 3498.2524,-1002.2806 3124.9179,-1088.5214 3015.293,-1076.7898 2636.3169,-1020.2806 2562.7601,-1009.3125 2542.0824,-1008.9727 2474.3409,-978.2806 2410.0685,-949.1603 2343.9385,-899.0592 2307.8563,-869.6714"/>
<polygon fill="#000000" stroke="#000000" points="2309.7208,-866.6731 2299.7741,-863.0242 2305.2743,-872.0795 2309.7208,-866.6731"/>
<text text-anchor="middle" x="3229.0538" y="-1060.4806" font-family="Times,serif" font-size="14.00" fill="#000000">and|or|xor</text>
</g>
<!-- q33 -->
<g id="node44" class="node">
<title>q33</title>
<ellipse fill="none" stroke="#000000" cx="4342.9703" cy="-845.2806" rx="25.5439" ry="25.5439"/>
<text text-anchor="middle" x="4342.9703" y="-841.0806" font-family="Times,serif" font-size="14.00" fill="#000000">q33</text>
</g>
<!-- Арифметическое выражение\nсм. q27&#45;q31\n&#45;&gt;q33 -->
<g id="edge95" class="edge">
<title>Арифметическое выражение\nсм. q27-q31\n-&gt;q33</title>
<path fill="none" stroke="#000000" d="M4057.1554,-876.6541C4150.1991,-866.4409 4253.7809,-855.0708 4307.0272,-849.226"/>
<polygon fill="#000000" stroke="#000000" points="4307.7371,-852.6692 4317.2955,-848.0989 4306.9733,-845.711 4307.7371,-852.6692"/>
<text text-anchor="middle" x="4106.1086" y="-876.4806" font-family="Times,serif" font-size="14.00" fill="#000000">then</text>
</g>
<!-- q32&#45;&gt;q27 -->
<g id="edge93" class="edge">
<title>q32-&gt;q27</title>
<path fill="none" stroke="#000000" d="M2802.4277,-811.9973C2762.9735,-814.6514 2684.7301,-819.902 2618.3169,-824.2806 2508.1727,-831.5424 2377.8346,-839.9785 2316.0834,-843.9659"/>
<polygon fill="#000000" stroke="#000000" points="2315.8258,-840.4752 2306.0721,-844.6122 2316.2768,-847.4606 2315.8258,-840.4752"/>
<text text-anchor="middle" x="2546.3289" y="-837.4806" font-family="Times,serif" font-size="14.00" fill="#000000">=|&lt;&gt;|&lt;|&lt;=|&gt;=|&gt;|and|or|xor</text>
</g>
<!-- q32&#45;&gt;q33 -->
<g id="edge94" class="edge">
<title>q32-&gt;q33</title>
<path fill="none" stroke="#000000" d="M2853.452,-809.0668C2907.4108,-806.6102 3037.0056,-801.2806 3145.7543,-801.2806 3145.7543,-801.2806 3145.7543,-801.2806 3869.2469,-801.2806 4033.5295,-801.2806 4228.4905,-827.8402 4307.2945,-839.6892"/>
<polygon fill="#000000" stroke="#000000" points="4307.2156,-843.2173 4317.6279,-841.2593 4308.2671,-836.2968 4307.2156,-843.2173"/>
<text text-anchor="middle" x="3386.6864" y="-805.4806" font-family="Times,serif" font-size="14.00" fill="#000000">then</text>
</g>
<!-- q33&#45;&gt;q27 -->
<g id="edge102" class="edge">
<title>q33-&gt;q27</title>
<path fill="none" stroke="#000000" d="M4318.6161,-837.3825C4249.2125,-815.6008 4044.1434,-756.2806 3869.2469,-756.2806 2827.9157,-756.2806 2827.9157,-756.2806 2827.9157,-756.2806 2669.769,-756.2806 2629.6269,-766.3363 2474.3409,-796.2806 2417.7135,-807.2003 2353.0578,-824.9306 2314.4886,-836.0809"/>
<polygon fill="#000000" stroke="#000000" points="2313.4206,-832.7465 2304.798,-838.9029 2315.3778,-839.4673 2313.4206,-832.7465"/>
<text text-anchor="middle" x="3300.6423" y="-760.4806" font-family="Times,serif" font-size="14.00" fill="#000000">if</text>
</g>
<!-- Ввод\nсм. q18&#45;q21\n -->
<g id="node45" class="node">
<title>Ввод\nсм. q18-q21\n</title>
<polygon fill="none" stroke="#ff0000" points="4849.5524,-1190.8825 4745.2301,-1190.8825 4745.2301,-1149.6787 4849.5524,-1149.6787 4849.5524,-1190.8825"/>
<text text-anchor="middle" x="4797.3912" y="-1174.4806" font-family="Times,serif" font-size="14.00" fill="#000000">Ввод</text>
<text text-anchor="middle" x="4797.3912" y="-1157.6806" font-family="Times,serif" font-size="14.00" fill="#000000">см. q18-q21</text>
</g>
<!-- q33&#45;&gt;Ввод\nсм. q18&#45;q21\n -->
<g id="edge96" class="edge">
<title>q33-&gt;Ввод\nсм. q18-q21\n</title>
<path fill="none" stroke="#000000" d="M4356.5055,-866.9724C4392.3451,-922.3892 4495.7379,-1069.6237 4622.9956,-1138.2806 4657.2692,-1156.7716 4700.2586,-1164.8016 4734.9791,-1168.1942"/>
<polygon fill="#000000" stroke="#000000" points="4734.7367,-1171.6862 4745.0031,-1169.0689 4735.3452,-1164.7127 4734.7367,-1171.6862"/>
<text text-anchor="middle" x="4578.4922" y="-1131.4806" font-family="Times,serif" font-size="14.00" fill="#000000">read</text>
</g>
<!-- Вывод\nсм. q22&#45;q25\n -->
<g id="node46" class="node">
<title>Вывод\nсм. q22-q25\n</title>
<polygon fill="none" stroke="#ff0000" points="4849.5524,-733.8825 4745.2301,-733.8825 4745.2301,-692.6787 4849.5524,-692.6787 4849.5524,-733.8825"/>
<text text-anchor="middle" x="4797.3912" y="-717.4806" font-family="Times,serif" font-size="14.00" fill="#000000">Вывод</text>
<text text-anchor="middle" x="4797.3912" y="-700.6806" font-family="Times,serif" font-size="14.00" fill="#000000">см. q22-q25</text>
</g>
<!-- q33&#45;&gt;Вывод\nсм. q22&#45;q25\n -->
<g id="edge98" class="edge">
<title>q33-&gt;Вывод\nсм. q22-q25\n</title>
<path fill="none" stroke="#000000" d="M4367.7247,-838.09C4436.9118,-817.9925 4633.8646,-760.7818 4735.3143,-731.3127"/>
<polygon fill="#000000" stroke="#000000" points="4736.4964,-734.6141 4745.1231,-728.4634 4734.5437,-727.8919 4736.4964,-734.6141"/>
<text text-anchor="middle" x="4578.4922" y="-786.4806" font-family="Times,serif" font-size="14.00" fill="#000000">write</text>
</g>
<!-- Цикл for\nсм. 35&#45;... -->
<g id="node47" class="node">
<title>Цикл for\nсм. 35-...</title>
<polygon fill="none" stroke="#ff0000" points="4855.588,-1034.8825 4739.1945,-1034.8825 4739.1945,-993.6787 4855.588,-993.6787 4855.588,-1034.8825"/>
<text text-anchor="middle" x="4797.3912" y="-1018.4806" font-family="Times,serif" font-size="14.00" fill="#000000">Цикл for</text>
<text text-anchor="middle" x="4797.3912" y="-1001.6806" font-family="Times,serif" font-size="14.00" fill="#000000">см. 35-...</text>
</g>
<!-- q33&#45;&gt;Цикл for\nсм. 35&#45;... -->
<g id="edge100" class="edge">
<title>q33-&gt;Цикл for\nсм. 35-...</title>
<path fill="none" stroke="#000000" d="M4367.0811,-854.2475C4434.983,-879.5003 4629.5265,-951.8514 4732.1715,-990.0253"/>
<polygon fill="#000000" stroke="#000000" points="4731.2178,-993.4047 4741.8107,-993.6101 4733.6579,-986.8438 4731.2178,-993.4047"/>
<text text-anchor="middle" x="4578.4922" y="-943.4806" font-family="Times,serif" font-size="14.00" fill="#000000">for</text>
</g>
<!-- q34 -->
<g id="node48" class="node">
<title>q34</title>
<ellipse fill="none" stroke="#000000" cx="4797.3912" cy="-819.2806" rx="25.5439" ry="25.5439"/>
<text text-anchor="middle" x="4797.3912" y="-815.0806" font-family="Times,serif" font-size="14.00" fill="#000000">q34</text>
</g>
<!-- q33&#45;&gt;q34 -->
<g id="edge103" class="edge">
<title>q33-&gt;q34</title>
<path fill="none" stroke="#000000" d="M4368.704,-843.8082C4445.4725,-839.4159 4673.0223,-826.3965 4761.5691,-821.3302"/>
<polygon fill="#000000" stroke="#000000" points="4761.8752,-824.8185 4771.6589,-820.7529 4761.4753,-817.8299 4761.8752,-824.8185"/>
<text text-anchor="middle" x="4578.4922" y="-836.4806" font-family="Times,serif" font-size="14.00" fill="#000000">a-z|A-Z|_</text>
</g>
<!-- Лист операций (if, for, assign, read, write) -->
<g id="node50" class="node">
<title>Лист операций (if, for, assign, read, write)</title>
<polygon fill="none" stroke="#ff0000" points="4971.6825,-1129.2806 4623.1,-1129.2806 4623.1,-1093.2806 4971.6825,-1093.2806 4971.6825,-1129.2806"/>
<text text-anchor="middle" x="4797.3912" y="-1107.0806" font-family="Times,serif" font-size="14.00" fill="#000000">Лист операций (if, for, assign, read, write)</text>
</g>
<!-- q33&#45;&gt;Лист операций (if, for, assign, read, write) -->
<g id="edge107" class="edge">
<title>q33-&gt;Лист операций (if, for, assign, read, write)</title>
<path fill="none" stroke="#000000" d="M4362.5473,-861.8634C4406.6522,-898.6024 4518.1421,-988.0404 4622.9956,-1044.2806 4656.9447,-1062.4899 4696.9326,-1078.2249 4730.0476,-1089.8618"/>
<polygon fill="#000000" stroke="#000000" points="4729.0461,-1093.2189 4739.6409,-1093.1866 4731.3384,-1086.6048 4729.0461,-1093.2189"/>
<text text-anchor="middle" x="4578.4922" y="-1034.4806" font-family="Times,serif" font-size="14.00" fill="#000000">begin</text>
</g>
<!-- Ввод\nсм. q18&#45;q21\n&#45;&gt;q17 -->
<g id="edge97" class="edge">
<title>Ввод\nсм. q18-q21\n-&gt;q17</title>
<path fill="none" stroke="#000000" d="M4745.037,-1177.708C4660.6084,-1189.0235 4489.0621,-1209.2806 4342.9703,-1209.2806 3386.6864,-1209.2806 3386.6864,-1209.2806 3386.6864,-1209.2806 2833.052,-1209.2806 2211.8859,-1203.1105 2104.0497,-1130.2806 2048.52,-1092.7772 2053.4109,-1061.118 2033.0429,-997.2806 2015.1556,-941.2181 1998.9306,-768.8534 1992.4752,-693.3457"/>
<polygon fill="#000000" stroke="#000000" points="1995.925,-692.6029 1991.5947,-682.9334 1988.9499,-693.1928 1995.925,-692.6029"/>
<text text-anchor="middle" x="3300.6423" y="-1212.4806" font-family="Times,serif" font-size="14.00" fill="#000000">;</text>
</g>
<!-- Вывод\nсм. q22&#45;q25\n&#45;&gt;q17 -->
<g id="edge99" class="edge">
<title>Вывод\nсм. q22-q25\n-&gt;q17</title>
<path fill="none" stroke="#000000" d="M4744.92,-711.3762C4660.3292,-708.4747 4488.5623,-703.2806 4342.9703,-703.2806 2280.1953,-703.2806 2280.1953,-703.2806 2280.1953,-703.2806 2169.433,-703.2806 2141.1359,-695.4513 2033.0429,-671.2806 2029.8671,-670.5705 2026.5922,-669.7287 2023.3314,-668.8157"/>
<polygon fill="#000000" stroke="#000000" points="2024.2888,-665.4488 2013.7046,-665.9232 2022.2745,-672.1527 2024.2888,-665.4488"/>
<text text-anchor="middle" x="3300.6423" y="-707.4806" font-family="Times,serif" font-size="14.00" fill="#000000">;</text>
</g>
<!-- Цикл for\nсм. 35&#45;...&#45;&gt;q17 -->
<g id="edge101" class="edge">
<title>Цикл for\nсм. 35-...-&gt;q17</title>
<path fill="none" stroke="#000000" d="M4738.8057,-1027.9518C4700.8705,-1036.2064 4650.2793,-1046.1011 4604.9956,-1051.2806 3996.9935,-1120.8229 3841.0201,-1103.2806 3229.0538,-1103.2806 2280.1953,-1103.2806 2280.1953,-1103.2806 2280.1953,-1103.2806 2084.5081,-1103.2806 2013.6812,-798.2007 1995.0366,-692.6824"/>
<polygon fill="#000000" stroke="#000000" points="1998.4368,-691.8022 1993.2973,-682.5374 1991.5375,-692.985 1998.4368,-691.8022"/>
<text text-anchor="middle" x="3300.6423" y="-1107.4806" font-family="Times,serif" font-size="14.00" fill="#000000">;</text>
</g>
<!-- q34&#45;&gt;q34 -->
<g id="edge104" class="edge">
<title>q34-&gt;q34</title>
<path fill="none" stroke="#000000" d="M4773.2914,-828.2537C4744.6509,-843.2782 4752.6842,-862.8025 4797.3912,-862.8025 4836.8592,-862.8025 4847.7451,-847.5861 4830.0491,-833.6825"/>
<polygon fill="#000000" stroke="#000000" points="4831.8103,-830.6549 4821.4911,-828.2537 4828.0606,-836.5659 4831.8103,-830.6549"/>
<text text-anchor="middle" x="4797.3912" y="-867.0025" font-family="Times,serif" font-size="14.00" fill="#000000">0-9|a-z|A-Z|_</text>
</g>
<!-- Присваивание\nсм. 26&#45;...\n -->
<g id="node49" class="node">
<title>Присваивание\nсм. 26-...\n</title>
<polygon fill="none" stroke="#ff0000" points="5348.171,-705.8825 5122.2074,-705.8825 5122.2074,-664.6787 5348.171,-664.6787 5348.171,-705.8825"/>
<text text-anchor="middle" x="5235.1892" y="-689.4806" font-family="Times,serif" font-size="14.00" fill="#000000">Присваивание</text>
<text text-anchor="middle" x="5235.1892" y="-672.6806" font-family="Times,serif" font-size="14.00" fill="#000000">см. 26-...</text>
</g>
<!-- q34&#45;&gt;Присваивание\nсм. 26&#45;...\n -->
<g id="edge105" class="edge">
<title>q34-&gt;Присваивание\nсм. 26-...\n</title>
<path fill="none" stroke="#000000" d="M4821.8673,-811.7891C4885.2146,-792.3999 5056.6338,-739.9324 5157.7114,-708.9948"/>
<polygon fill="#000000" stroke="#000000" points="5159.0307,-712.2514 5167.5684,-705.9778 5156.9819,-705.5579 5159.0307,-712.2514"/>
<text text-anchor="middle" x="5016.2902" y="-764.4806" font-family="Times,serif" font-size="14.00" fill="#000000">:=</text>
</g>
<!-- Присваивание\nсм. 26&#45;...\n&#45;&gt;q17 -->
<g id="edge106" class="edge">
<title>Присваивание\nсм. 26-...\n-&gt;q17</title>
<path fill="none" stroke="#000000" d="M5121.8953,-675.6572C5033.5597,-668.9802 4907.7663,-661.2806 4797.3912,-661.2806 3472.7305,-661.2806 3472.7305,-661.2806 3472.7305,-661.2806 3364.4152,-661.2806 3337.3692,-657.2806 3229.0538,-657.2806 2280.1953,-657.2806 2280.1953,-657.2806 2280.1953,-657.2806 2188.4134,-657.2806 2080.3299,-657.2806 2025.4335,-657.2806"/>
<polygon fill="#000000" stroke="#000000" points="2025.184,-653.7807 2015.184,-657.2806 2025.1839,-660.7807 2025.184,-653.7807"/>
<text text-anchor="middle" x="3386.6864" y="-665.4806" font-family="Times,serif" font-size="14.00" fill="#000000">;</text>
</g>
<!-- Лист операций (if, for, assign, read, write)&#45;&gt;q17 -->
<g id="edge108" class="edge">
<title>Лист операций (if, for, assign, read, write)-&gt;q17</title>
<path fill="none" stroke="#000000" d="M4698.3013,-1129.3139C4668.4044,-1134.1956 4635.4407,-1139.0239 4604.9956,-1142.2806 4489.0354,-1154.6851 4459.5921,-1156.2806 4342.9703,-1156.2806 2280.1953,-1156.2806 2280.1953,-1156.2806 2280.1953,-1156.2806 2128.3148,-1156.2806 2079.7283,-1064.8081 2033.0429,-920.2806 2007.6095,-841.5444 1996.4734,-744.5113 1992.0694,-693.1388"/>
<polygon fill="#000000" stroke="#000000" points="1995.5349,-692.573 1991.2291,-682.8926 1988.5583,-693.1452 1995.5349,-692.573"/>
<text text-anchor="middle" x="3300.6423" y="-1160.4806" font-family="Times,serif" font-size="14.00" fill="#000000">end;</text>
</g>
<!-- Ввод\nсм. q18&#45;q21&#45;&gt;q17 -->
<g id="edge110" class="edge">
<title>Ввод\nсм. q18-q21-&gt;q17</title>
<path fill="none" stroke="#000000" d="M5182.9616,-619.6734C5100.8815,-620.2558 4936.6748,-621.2806 4797.3912,-621.2806 3472.7305,-621.2806 3472.7305,-621.2806 3472.7305,-621.2806 3364.4261,-621.2806 3337.3582,-619.2806 3229.0538,-619.2806 2280.1953,-619.2806 2280.1953,-619.2806 2280.1953,-619.2806 2187.2005,-619.2806 2078.8717,-638.6401 2024.4757,-649.7228"/>
<polygon fill="#000000" stroke="#000000" points="2023.7329,-646.3023 2014.649,-651.7551 2025.1506,-653.1572 2023.7329,-646.3023"/>
<text text-anchor="middle" x="3386.6864" y="-625.4806" font-family="Times,serif" font-size="14.00" fill="#000000">;</text>
</g>
<!-- Вывод\nсм. q22&#45;q25&#45;&gt;q17 -->
<g id="edge112" class="edge">
<title>Вывод\nсм. q22-q25-&gt;q17</title>
<path fill="none" stroke="#000000" d="M5183.0207,-561.3864C5101.0201,-568.9582 4936.9187,-582.2806 4797.3912,-582.2806 3588.2404,-582.2806 3588.2404,-582.2806 3588.2404,-582.2806 3460.4183,-582.2806 3428.4645,-581.2806 3300.6423,-581.2806 2280.1953,-581.2806 2280.1953,-581.2806 2280.1953,-581.2806 2167.8526,-581.2806 2137.6277,-593.2571 2033.0429,-634.2806 2029.0153,-635.8605 2024.8785,-637.715 2020.8335,-639.6736"/>
<polygon fill="#000000" stroke="#000000" points="2018.9748,-636.6926 2011.6556,-644.3528 2022.1543,-642.9288 2018.9748,-636.6926"/>
<text text-anchor="middle" x="3386.6864" y="-586.4806" font-family="Times,serif" font-size="14.00" fill="#000000">;</text>
</g>
<!-- Условный оператор if\nсм. 27&#45;...&#45;&gt;q17 -->
<g id="edge115" class="edge">
<title>Условный оператор if\nсм. 27-...-&gt;q17</title>
<path fill="none" stroke="#000000" d="M5115.74,-354.6422C5027.9522,-341.2509 4905.6121,-326.2806 4797.3912,-326.2806 3588.2404,-326.2806 3588.2404,-326.2806 3588.2404,-326.2806 3460.4159,-326.2806 3428.4668,-328.2806 3300.6423,-328.2806 2280.1953,-328.2806 2280.1953,-328.2806 2280.1953,-328.2806 2140.277,-328.2806 2113.0169,-408.4707 2033.0429,-523.2806 2012.3109,-553.0434 2000.994,-593.2875 1995.141,-621.8837"/>
<polygon fill="#000000" stroke="#000000" points="1991.6757,-621.3702 1993.2245,-631.8512 1998.5498,-622.6919 1991.6757,-621.3702"/>
<text text-anchor="middle" x="3386.6864" y="-332.4806" font-family="Times,serif" font-size="14.00" fill="#000000">;</text>
</g>
<!-- q42&#45;&gt;q42 -->
<g id="edge117" class="edge">
<title>q42-&gt;q42</title>
<path fill="none" stroke="#000000" d="M5211.4989,-462.3342C5187.6538,-477.1969 5195.5506,-495.8025 5235.1892,-495.8025 5269.2537,-495.8025 5279.876,-482.0618 5267.0561,-468.7643"/>
<polygon fill="#000000" stroke="#000000" points="5268.9037,-465.7646 5258.8795,-462.3342 5264.5765,-471.267 5268.9037,-465.7646"/>
<text text-anchor="middle" x="5235.1892" y="-500.0025" font-family="Times,serif" font-size="14.00" fill="#000000">0-9|a-z|A-Z|_</text>
</g>
<!-- Присваивание\nсм. 26&#45;... -->
<g id="node55" class="node">
<title>Присваивание\nсм. 26-...</title>
<polygon fill="none" stroke="#ff0000" points="5683.3427,-279.8825 5457.3791,-279.8825 5457.3791,-238.6787 5683.3427,-238.6787 5683.3427,-279.8825"/>
<text text-anchor="middle" x="5570.3609" y="-263.4806" font-family="Times,serif" font-size="14.00" fill="#000000">Присваивание</text>
<text text-anchor="middle" x="5570.3609" y="-246.6806" font-family="Times,serif" font-size="14.00" fill="#000000">см. 26-...</text>
</g>
<!-- q42&#45;&gt;Присваивание\nсм. 26&#45;... -->
<g id="edge118" class="edge">
<title>q42-&gt;Присваивание\nсм. 26-...</title>
<path fill="none" stroke="#000000" d="M5260.5504,-449.2637C5295.7928,-444.2485 5360.7462,-431.9777 5409.5848,-405.2806 5465.3981,-374.771 5517.4711,-321.0685 5546.4952,-287.9907"/>
<polygon fill="#000000" stroke="#000000" points="5549.4681,-289.904 5553.3658,-280.0522 5544.1751,-285.3231 5549.4681,-289.904"/>
<text text-anchor="middle" x="5433.4774" y="-397.4806" font-family="Times,serif" font-size="14.00" fill="#000000">:=</text>
</g>
<!-- Присваивание\nсм. 26&#45;...&#45;&gt;q17 -->
<g id="edge119" class="edge">
<title>Присваивание\nсм. 26-...-&gt;q17</title>
<path fill="none" stroke="#000000" d="M5457.1703,-251.1869C5392.2409,-247.2184 5309.1741,-243.2806 5235.1892,-243.2806 3588.2404,-243.2806 3588.2404,-243.2806 3588.2404,-243.2806 3423.2675,-243.2806 2260.3738,-231.5657 2104.0497,-284.2806 2067.2316,-296.6963 2053.0577,-301.977 2033.0429,-335.2806 2004.4468,-382.8631 1994.096,-547.6137 1990.8386,-621.2419"/>
<polygon fill="#000000" stroke="#000000" points="1987.334,-621.2801 1990.4081,-631.4191 1994.3277,-621.576 1987.334,-621.2801"/>
<text text-anchor="middle" x="3472.7305" y="-247.4806" font-family="Times,serif" font-size="14.00" fill="#000000">;</text>
</g>
<!-- Лист операций (if, for, assign, read, write)\n&#45;&gt;q17 -->
<g id="edge121" class="edge">
<title>Лист операций (if, for, assign, read, write)\n-&gt;q17</title>
<path fill="none" stroke="#000000" d="M5060.651,-299.5746C4980.5152,-293.6348 4884.2034,-288.2806 4797.3912,-288.2806 2280.1953,-288.2806 2280.1953,-288.2806 2280.1953,-288.2806 2200.2901,-288.2806 2169.2124,-278.0348 2104.0497,-324.2806 2053.8241,-359.9256 2055.2749,-385.8444 2033.0429,-443.2806 2009.7162,-503.5454 1998.1584,-578.4265 1993.0387,-621.7455"/>
<polygon fill="#000000" stroke="#000000" points="1989.5486,-621.4607 1991.9006,-631.7912 1996.5041,-622.2488 1989.5486,-621.4607"/>
<text text-anchor="middle" x="3386.6864" y="-292.4806" font-family="Times,serif" font-size="14.00" fill="#000000">end;</text>
</g>
<!--  Лист операций (if, for, assign, read, write)\n&#45;&gt;q17 -->
<g id="edge123" class="edge">
<title> Лист операций (if, for, assign, read, write)\n-&gt;q17</title>
<path fill="none" stroke="#000000" d="M2103.7764,-46.6963C2071.5886,-51.5939 2044.5293,-59.3397 2033.0429,-71.4806 2014.0594,-91.546 1996.0316,-497.3306 1990.942,-621.4949"/>
<polygon fill="#000000" stroke="#000000" points="1987.4397,-621.4832 1990.5302,-631.6172 1994.4339,-621.7678 1987.4397,-621.4832"/>
<text text-anchor="middle" x="2059.5463" y="-76.4806" font-family="Times,serif" font-size="14.00" fill="#000000">end;</text>
</g>
</g>
</svg>